solid csg.js
facet normal 0 0 -1
outer loop
vertex 53.589737799999696 82.39428140000003 0
vertex 75.66783584999996 80.4626998 0
vertex 75.96208233059896 80.42219769792477 0
endloop
endfacet
facet normal 0 0 -1
outer loop
vertex 53.589737799999696 82.39428140000003 0
vertex 75.96208233059896 80.42219769792477 0
vertex 76.25088157967862 80.35279737120834 0
endloop
endfacet
facet normal 0 0 -1
outer loop
vertex 53.589737799999696 82.39428140000003 0
vertex 76.25088157967862 80.35279737120834 0
vertex 76.53140267752488 80.25517910816062 0
endloop
endfacet
facet normal 0 0 -1
outer loop
vertex 53.589737799999696 82.39428140000003 0
vertex 76.53140267752488 80.25517910816062 0
vertex 76.80089170000011 80.13029959999994 0
endloop
endfacet
facet normal 0 0 -1
outer loop
vertex 53.589737799999696 82.39428140000003 0
vertex 76.80089170000011 80.13029959999994 0
vertex 98.21920665000012 68.88553979999996 0
endloop
endfacet
facet normal 0 0 -1
outer loop
vertex 53.589737799999696 82.39428140000003 0
vertex 98.21920665000012 68.88553979999996 0
vertex -9.851087808119033 68.88553979999996 0
endloop
endfacet
facet normal 0 0 -1
outer loop
vertex 53.589737799999696 82.39428140000003 0
vertex -9.851087808119033 68.88553979999996 0
vertex -9.754965116803774 68.93968199298142 0
endloop
endfacet
facet normal 0 0 -1
outer loop
vertex 53.589737799999696 82.39428140000003 0
vertex -9.754965116803774 68.93968199298142 0
vertex -9.2968824000002 69.10701509999993 0
endloop
endfacet
facet normal 0 0 -1
outer loop
vertex 53.589737799999696 82.39428140000003 0
vertex -9.2968824000002 69.10701509999993 0
vertex 33.87659350000038 81.00241220000008 0
endloop
endfacet
facet normal 0 0 -1
outer loop
vertex 53.589737799999696 82.39428140000003 0
vertex 33.87659350000038 81.00241220000008 0
vertex 34.07056433702762 81.04897533749711 0
endloop
endfacet
facet normal 0 0 -1
outer loop
vertex 53.589737799999696 82.39428140000003 0
vertex 34.07056433702762 81.04897533749711 0
vertex 34.2672008080647 81.08254481245211 0
endloop
endfacet
facet normal 0 0 -1
outer loop
vertex 53.589737799999696 82.39428140000003 0
vertex 34.2672008080647 81.08254481245211 0
vertex 34.465636999999994 81.10297440000001 0
endloop
endfacet
facet normal 0 0 -1
outer loop
vertex 53.589737799999696 82.39428140000003 0
vertex 34.465636999999994 81.10297440000001 0
vertex 53.12043389999967 82.39848569999998 0
endloop
endfacet
facet normal 0 0 -1
outer loop
vertex 53.589737799999696 82.39428140000003 0
vertex 53.12043389999967 82.39848569999998 0
vertex 53.355166156800884 82.40557691822188 0
endloop
endfacet
facet normal 0 0 -1
outer loop
vertex 98.21920665000012 68.88553979999996 0
vertex 98.53211218916414 68.74349050304508 0
vertex -10.103278566764873 68.74349050304508 0
endloop
endfacet
facet normal 0 0 -1
outer loop
vertex 98.21920665000012 68.88553979999996 0
vertex -10.103278566764873 68.74349050304508 0
vertex -9.851087808119033 68.88553979999996 0
endloop
endfacet
facet normal 0 0 -1
outer loop
vertex 98.53211218916414 68.74349050304508 0
vertex 98.85920945666822 68.63815647817083 0
vertex -10.25746133032308 68.63815647817083 0
endloop
endfacet
facet normal 0 0 -1
outer loop
vertex 98.53211218916414 68.74349050304508 0
vertex -10.25746133032308 68.63815647817083 0
vertex -10.17988446609752 68.7003413638727 0
endloop
endfacet
facet normal 0 0 -1
outer loop
vertex 98.53211218916414 68.74349050304508 0
vertex -10.17988446609752 68.7003413638727 0
vertex -10.103278566764873 68.74349050304508 0
endloop
endfacet
facet normal 0 0 -1
outer loop
vertex 98.85920945666822 68.63815647817083 0
vertex 99.19620329999985 68.57091960000002 0
vertex -10.341340654212393 68.57091960000002 0
endloop
endfacet
facet normal 0 0 -1
outer loop
vertex 98.85920945666822 68.63815647817083 0
vertex -10.341340654212393 68.57091960000002 0
vertex -10.25746133032308 68.63815647817083 0
endloop
endfacet
facet normal 0 0 -1
outer loop
vertex 99.19620329999985 68.57091960000002 0
vertex 115.60410094999975 66.26494020000003 0
vertex 116.07775144786291 66.15871596547532 0
endloop
endfacet
facet normal 0 0 -1
outer loop
vertex 99.19620329999985 68.57091960000002 0
vertex 116.07775144786291 66.15871596547532 0
vertex 116.52807034469048 65.97749435173606 0
endloop
endfacet
facet normal 0 0 -1
outer loop
vertex 99.19620329999985 68.57091960000002 0
vertex 116.52807034469048 65.97749435173606 0
vertex 116.94326787236014 65.72601990941027 0
endloop
endfacet
facet normal 0 0 -1
outer loop
vertex 99.19620329999985 68.57091960000002 0
vertex 116.94326787236014 65.72601990941027 0
vertex 117.31247377290461 65.41087647360801 0
endloop
endfacet
facet normal 0 0 -1
outer loop
vertex 99.19620329999985 68.57091960000002 0
vertex 117.31247377290461 65.41087647360801 0
vertex 117.62602189198873 65.04031479298652 0
endloop
endfacet
facet normal 0 0 -1
outer loop
vertex 99.19620329999985 68.57091960000002 0
vertex 117.62602189198873 65.04031479298652 0
vertex 117.8757032478325 64.62403651746634 0
endloop
endfacet
facet normal 0 0 -1
outer loop
vertex 99.19620329999985 68.57091960000002 0
vertex 117.8757032478325 64.62403651746634 0
vertex 118.0549818999999 64.1729404000003 0
endloop
endfacet
facet normal 0 0 -1
outer loop
vertex 99.19620329999985 68.57091960000002 0
vertex 118.0549818999999 64.1729404000003 0
vertex 143.42244953507117 -18.6258302 0
endloop
endfacet
facet normal 0 0 -1
outer loop
vertex 99.19620329999985 68.57091960000002 0
vertex 143.42244953507117 -18.6258302 0
vertex 61.73813949999999 -18.6258302 0
endloop
endfacet
facet normal 0 0 -1
outer loop
vertex 99.19620329999985 68.57091960000002 0
vertex 61.73813949999999 -18.6258302 0
vertex -8.790519950000004 -11.7636218 0
endloop
endfacet
facet normal 0 0 -1
outer loop
vertex 99.19620329999985 68.57091960000002 0
vertex -8.790519950000004 -11.7636218 0
vertex -9.273410094122838 -11.676314115154549 0
endloop
endfacet
facet normal 0 0 -1
outer loop
vertex 99.19620329999985 68.57091960000002 0
vertex -9.273410094122838 -11.676314115154549 0
vertex -9.735606745540665 -11.511451206827122 0
endloop
endfacet
facet normal 0 0 -1
outer loop
vertex 99.19620329999985 68.57091960000002 0
vertex -9.735606745540665 -11.511451206827122 0
vertex -10.164743292427872 -11.273444174893651 0
endloop
endfacet
facet normal 0 0 -1
outer loop
vertex 99.19620329999985 68.57091960000002 0
vertex -10.164743292427872 -11.273444174893651 0
vertex -10.549337684710551 -10.96866117577993 0
endloop
endfacet
facet normal 0 0 -1
outer loop
vertex 99.19620329999985 68.57091960000002 0
vertex -10.549337684710551 -10.96866117577993 0
vertex -10.87909964974159 -10.605257034990487 0
endloop
endfacet
facet normal 0 0 -1
outer loop
vertex 99.19620329999985 68.57091960000002 0
vertex -10.87909964974159 -10.605257034990487 0
vertex -11.145206020577007 -10.192955055217364 0
endloop
endfacet
facet normal 0 0 -1
outer loop
vertex 99.19620329999985 68.57091960000002 0
vertex -11.145206020577007 -10.192955055217364 0
vertex -11.340536810123979 -9.74278685800768 0
endloop
endfacet
facet normal 0 0 -1
outer loop
vertex 99.19620329999985 68.57091960000002 0
vertex -11.340536810123979 -9.74278685800768 0
vertex -11.459865714720337 -9.26679721983069 0
endloop
endfacet
facet normal 0 0 -1
outer loop
vertex 99.19620329999985 68.57091960000002 0
vertex -11.459865714720337 -9.26679721983069 0
vertex -11.499999900000006 -8.777723599999916 0
endloop
endfacet
facet normal 0 0 -1
outer loop
vertex 99.19620329999985 68.57091960000002 0
vertex -11.499999900000006 -8.777723599999916 0
vertex -11.500001200000014 66.21479254999988 0
endloop
endfacet
facet normal 0 0 -1
outer loop
vertex 99.19620329999985 68.57091960000002 0
vertex -11.500001200000014 66.21479254999988 0
vertex -11.460359853855223 66.70086759957799 0
endloop
endfacet
facet normal 0 0 -1
outer loop
vertex 99.19620329999985 68.57091960000002 0
vertex -11.460359853855223 66.70086759957799 0
vertex -11.342485968021123 67.17409707582055 0
endloop
endfacet
facet normal 0 0 -1
outer loop
vertex 99.19620329999985 68.57091960000002 0
vertex -11.342485968021123 67.17409707582055 0
vertex -11.149494561497136 67.62197508058789 0
endloop
endfacet
facet normal 0 0 -1
outer loop
vertex 99.19620329999985 68.57091960000002 0
vertex -11.149494561497136 67.62197508058789 0
vertex -10.886485762219124 68.03266567172524 0
endloop
endfacet
facet normal 0 0 -1
outer loop
vertex 99.19620329999985 68.57091960000002 0
vertex -10.886485762219124 68.03266567172524 0
vertex -10.560410027457309 68.39531564807429 0
endloop
endfacet
facet normal 0 0 -1
outer loop
vertex 99.19620329999985 68.57091960000002 0
vertex -10.560410027457309 68.39531564807429 0
vertex -10.341340654212393 68.57091960000002 0
endloop
endfacet
facet normal 0 0 -1
outer loop
vertex 143.42244953507117 -18.6258302 0
vertex 143.4458069698286 -18.702068274296828 0
vertex 62.17828455631599 -18.702068274296828 0
endloop
endfacet
facet normal 0 0 -1
outer loop
vertex 143.42244953507117 -18.6258302 0
vertex 62.17828455631599 -18.702068274296828 0
vertex 61.73813949999999 -18.6258302 0
endloop
endfacet
facet normal 0 0 -1
outer loop
vertex 143.4458069698286 -18.702068274296828 0
vertex 143.48892922905472 -18.842818234079214 0
vertex 62.60223450624095 -18.842818234079214 0
endloop
endfacet
facet normal 0 0 -1
outer loop
vertex 143.4458069698286 -18.702068274296828 0
vertex 62.60223450624095 -18.842818234079214 0
vertex 62.17828455631599 -18.702068274296828 0
endloop
endfacet
facet normal 0 0 -1
outer loop
vertex 143.48892922905472 -18.842818234079214 0
vertex 143.550860194013 -19.04495933205503 0
vertex 63.00058496466822 -19.04495933205503 0
endloop
endfacet
facet normal 0 0 -1
outer loop
vertex 143.48892922905472 -18.842818234079214 0
vertex 63.00058496466822 -19.04495933205503 0
vertex 62.60223450624095 -18.842818234079214 0
endloop
endfacet
facet normal 0 0 -1
outer loop
vertex 143.550860194013 -19.04495933205503 0
vertex 143.630226758108 -19.304009783142437 0
vertex 63.36450387735551 -19.304009783142437 0
endloop
endfacet
facet normal 0 0 -1
outer loop
vertex 143.550860194013 -19.04495933205503 0
vertex 63.36450387735551 -19.304009783142437 0
vertex 63.00058496466822 -19.04495933205503 0
endloop
endfacet
facet normal 0 0 -1
outer loop
vertex 143.630226758108 -19.304009783142437 0
vertex 143.7252692401738 -19.614226032672217 0
vertex 63.68592259141527 -19.614226032672217 0
endloop
endfacet
facet normal 0 0 -1
outer loop
vertex 143.630226758108 -19.304009783142437 0
vertex 63.68592259141527 -19.614226032672217 0
vertex 63.36450387735551 -19.304009783142437 0
endloop
endfacet
facet normal 0 0 -1
outer loop
vertex 143.7252692401738 -19.614226032672217 0
vertex 143.83388039936463 -19.96873010000013 0
vertex 63.9577147500001 -19.96873010000013 0
endloop
endfacet
facet normal 0 0 -1
outer loop
vertex 143.7252692401738 -19.614226032672217 0
vertex 63.9577147500001 -19.96873010000013 0
vertex 63.68592259141527 -19.614226032672217 0
endloop
endfacet
facet normal 0 0 -1
outer loop
vertex 143.83388039936463 -19.96873010000013 0
vertex 155.54686294999996 -58.199607900000004 0
vertex 155.65221285189142 -58.68239386874361 0
endloop
endfacet
facet normal 0 0 -1
outer loop
vertex 143.83388039936463 -19.96873010000013 0
vertex 155.65221285189142 -58.68239386874361 0
vertex 155.676881416294 -59.17592436970082 0
endloop
endfacet
facet normal 0 0 -1
outer loop
vertex 143.83388039936463 -19.96873010000013 0
vertex 155.676881416294 -59.17592436970082 0
vertex 155.62019935519703 -59.66680932301888 0
endloop
endfacet
facet normal 0 0 -1
outer loop
vertex 143.83388039936463 -19.96873010000013 0
vertex 155.62019935519703 -59.66680932301888 0
vertex 155.483704521525 -60.141730425756236 0
endloop
endfacet
facet normal 0 0 -1
outer loop
vertex 143.83388039936463 -19.96873010000013 0
vertex 155.483704521525 -60.141730425756236 0
vertex 155.27110018532656 -60.587802493558996 0
endloop
endfacet
facet normal 0 0 -1
outer loop
vertex 143.83388039936463 -19.96873010000013 0
vertex 155.27110018532656 -60.587802493558996 0
vertex 154.98815455957498 -60.99292305131044 0
endloop
endfacet
facet normal 0 0 -1
outer loop
vertex 143.83388039936463 -19.96873010000013 0
vertex 154.98815455957498 -60.99292305131044 0
vertex 154.64254430157018 -61.346100687926736 0
endloop
endfacet
facet normal 0 0 -1
outer loop
vertex 143.83388039936463 -19.96873010000013 0
vertex 154.64254430157018 -61.346100687926736 0
vertex 154.24364623593164 -61.63775326664742 0
endloop
endfacet
facet normal 0 0 -1
outer loop
vertex 143.83388039936463 -19.96873010000013 0
vertex 154.24364623593164 -61.63775326664742 0
vertex 153.80228589999982 -61.85996580000008 0
endloop
endfacet
facet normal 0 0 -1
outer loop
vertex 143.83388039936463 -19.96873010000013 0
vertex 153.80228589999982 -61.85996580000008 0
vertex 135.3297430499997 -69.3233595500001 0
endloop
endfacet
facet normal 0 0 -1
outer loop
vertex 143.83388039936463 -19.96873010000013 0
vertex 135.3297430499997 -69.3233595500001 0
vertex 135.1262077243041 -69.39716659368948 0
endloop
endfacet
facet normal 0 0 -1
outer loop
vertex 143.83388039936463 -19.96873010000013 0
vertex 135.1262077243041 -69.39716659368948 0
vertex 134.9178793833685 -69.45610224391407 0
endloop
endfacet
facet normal 0 0 -1
outer loop
vertex 143.83388039936463 -19.96873010000013 0
vertex 134.9178793833685 -69.45610224391407 0
vertex 134.7058461000001 -69.49985909999998 0
endloop
endfacet
facet normal 0 0 -1
outer loop
vertex 143.83388039936463 -19.96873010000013 0
vertex 134.7058461000001 -69.49985909999998 0
vertex 102.1314439499999 -75.00507315000003 0
endloop
endfacet
facet normal 0 0 -1
outer loop
vertex 143.83388039936463 -19.96873010000013 0
vertex 102.1314439499999 -75.00507315000003 0
vertex 101.63722318958335 -75.04701520362241 0
endloop
endfacet
facet normal 0 0 -1
outer loop
vertex 143.83388039936463 -19.96873010000013 0
vertex 101.63722318958335 -75.04701520362241 0
vertex 101.14284649756671 -75.00695297353408 0
endloop
endfacet
facet normal 0 0 -1
outer loop
vertex 143.83388039936463 -19.96873010000013 0
vertex 101.14284649756671 -75.00695297353408 0
vertex 100.66182756721845 -74.88598155320894 0
endloop
endfacet
facet normal 0 0 -1
outer loop
vertex 143.83388039936463 -19.96873010000013 0
vertex 100.66182756721845 -74.88598155320894 0
vertex 100.20731495992062 -74.68740767351608 0
endloop
endfacet
facet normal 0 0 -1
outer loop
vertex 143.83388039936463 -19.96873010000013 0
vertex 100.20731495992062 -74.68740767351608 0
vertex 99.79173269173384 -74.41665931385788 0
endloop
endfacet
facet normal 0 0 -1
outer loop
vertex 143.83388039936463 -19.96873010000013 0
vertex 99.79173269173384 -74.41665931385788 0
vertex 99.42644062527013 -74.08113732938045 0
endloop
endfacet
facet normal 0 0 -1
outer loop
vertex 143.83388039936463 -19.96873010000013 0
vertex 99.42644062527013 -74.08113732938045 0
vertex 99.12142790000007 -73.69001630000008 0
endloop
endfacet
facet normal 0 0 -1
outer loop
vertex 143.83388039936463 -19.96873010000013 0
vertex 99.12142790000007 -73.69001630000008 0
vertex 63.9577147500001 -19.96873010000013 0
endloop
endfacet
facet normal 0 0 1
outer loop
vertex 102.13144395000002 -75.00507315000003 1
vertex 134.7058460999996 -69.49985910000007 1
vertex 134.91787938336867 -69.45610224391402 1
endloop
endfacet
facet normal 0 0 1
outer loop
vertex 102.13144395000002 -75.00507315000003 1
vertex 134.91787938336867 -69.45610224391402 1
vertex 135.12620772430418 -69.39716659368943 1
endloop
endfacet
facet normal 0 0 1
outer loop
vertex 102.13144395000002 -75.00507315000003 1
vertex 135.12620772430418 -69.39716659368943 1
vertex 135.32974305000042 -69.32335954999984 1
endloop
endfacet
facet normal 0 0 1
outer loop
vertex 102.13144395000002 -75.00507315000003 1
vertex 135.32974305000042 -69.32335954999984 1
vertex 153.80228590000002 -61.85996579999997 1
endloop
endfacet
facet normal 0 0 1
outer loop
vertex 102.13144395000002 -75.00507315000003 1
vertex 153.80228590000002 -61.85996579999997 1
vertex 154.24364623593178 -61.63775326664735 1
endloop
endfacet
facet normal 0 0 1
outer loop
vertex 102.13144395000002 -75.00507315000003 1
vertex 154.24364623593178 -61.63775326664735 1
vertex 154.64254430156996 -61.346100687926935 1
endloop
endfacet
facet normal 0 0 1
outer loop
vertex 102.13144395000002 -75.00507315000003 1
vertex 154.64254430156996 -61.346100687926935 1
vertex 154.988154559575 -60.992923051310385 1
endloop
endfacet
facet normal 0 0 1
outer loop
vertex 102.13144395000002 -75.00507315000003 1
vertex 154.988154559575 -60.992923051310385 1
vertex 155.27110018532656 -60.58780249355897 1
endloop
endfacet
facet normal 0 0 1
outer loop
vertex 102.13144395000002 -75.00507315000003 1
vertex 155.27110018532656 -60.58780249355897 1
vertex 155.48370452152497 -60.14173042575624 1
endloop
endfacet
facet normal 0 0 1
outer loop
vertex 102.13144395000002 -75.00507315000003 1
vertex 155.48370452152497 -60.14173042575624 1
vertex 155.62019935519703 -59.66680932301881 1
endloop
endfacet
facet normal 0 0 1
outer loop
vertex 102.13144395000002 -75.00507315000003 1
vertex 155.62019935519703 -59.66680932301881 1
vertex 155.67688141629404 -59.17592436970072 1
endloop
endfacet
facet normal 0 0 1
outer loop
vertex 102.13144395000002 -75.00507315000003 1
vertex 155.67688141629404 -59.17592436970072 1
vertex 155.65221285189148 -58.6823938687436 1
endloop
endfacet
facet normal 0 0 1
outer loop
vertex 102.13144395000002 -75.00507315000003 1
vertex 155.65221285189148 -58.6823938687436 1
vertex 155.54686295000013 -58.199607900000515 1
endloop
endfacet
facet normal 0 0 1
outer loop
vertex 102.13144395000002 -75.00507315000003 1
vertex 155.54686295000013 -58.199607900000515 1
vertex 143.83388039936463 -19.968730100000084 1
endloop
endfacet
facet normal 0 0 1
outer loop
vertex 102.13144395000002 -75.00507315000003 1
vertex 143.83388039936463 -19.968730100000084 1
vertex 63.957714750000065 -19.968730100000084 1
endloop
endfacet
facet normal 0 0 1
outer loop
vertex 102.13144395000002 -75.00507315000003 1
vertex 63.957714750000065 -19.968730100000084 1
vertex 99.12142790000004 -73.69001630000004 1
endloop
endfacet
facet normal 0 0 1
outer loop
vertex 102.13144395000002 -75.00507315000003 1
vertex 99.12142790000004 -73.69001630000004 1
vertex 99.42644062527016 -74.08113732938048 1
endloop
endfacet
facet normal 0 0 1
outer loop
vertex 102.13144395000002 -75.00507315000003 1
vertex 99.42644062527016 -74.08113732938048 1
vertex 99.79173269173386 -74.41665931385789 1
endloop
endfacet
facet normal 0 0 1
outer loop
vertex 102.13144395000002 -75.00507315000003 1
vertex 99.79173269173386 -74.41665931385789 1
vertex 100.20731495992062 -74.68740767351608 1
endloop
endfacet
facet normal 0 0 1
outer loop
vertex 102.13144395000002 -75.00507315000003 1
vertex 100.20731495992062 -74.68740767351608 1
vertex 100.66182756721845 -74.88598155320894 1
endloop
endfacet
facet normal 0 0 1
outer loop
vertex 102.13144395000002 -75.00507315000003 1
vertex 100.66182756721845 -74.88598155320894 1
vertex 101.14284649756665 -75.00695297353407 1
endloop
endfacet
facet normal 0 0 1
outer loop
vertex 102.13144395000002 -75.00507315000003 1
vertex 101.14284649756665 -75.00695297353407 1
vertex 101.63722318958344 -75.04701520362241 1
endloop
endfacet
facet normal 0 0 1
outer loop
vertex 143.83388039936463 -19.968730100000084 1
vertex 143.72526924017382 -19.614226032672196 1
vertex 63.68592259141525 -19.614226032672196 1
endloop
endfacet
facet normal 0 0 1
outer loop
vertex 143.83388039936463 -19.968730100000084 1
vertex 63.68592259141525 -19.614226032672196 1
vertex 63.957714750000065 -19.968730100000084 1
endloop
endfacet
facet normal 0 0 1
outer loop
vertex 143.72526924017382 -19.614226032672196 1
vertex 143.63022675810802 -19.30400978314246 1
vertex 63.36450387735554 -19.30400978314246 1
endloop
endfacet
facet normal 0 0 1
outer loop
vertex 143.72526924017382 -19.614226032672196 1
vertex 63.36450387735554 -19.30400978314246 1
vertex 63.68592259141525 -19.614226032672196 1
endloop
endfacet
facet normal 0 0 1
outer loop
vertex 143.63022675810802 -19.30400978314246 1
vertex 143.55086019401304 -19.044959332055033 1
vertex 63.00058496466822 -19.044959332055033 1
endloop
endfacet
facet normal 0 0 1
outer loop
vertex 143.63022675810802 -19.30400978314246 1
vertex 63.00058496466822 -19.044959332055033 1
vertex 63.36450387735554 -19.30400978314246 1
endloop
endfacet
facet normal 0 0 1
outer loop
vertex 143.55086019401304 -19.044959332055033 1
vertex 143.48892922905475 -18.842818234079207 1
vertex 62.602234506240926 -18.842818234079207 1
endloop
endfacet
facet normal 0 0 1
outer loop
vertex 143.55086019401304 -19.044959332055033 1
vertex 62.602234506240926 -18.842818234079207 1
vertex 63.00058496466822 -19.044959332055033 1
endloop
endfacet
facet normal 0 0 1
outer loop
vertex 143.48892922905475 -18.842818234079207 1
vertex 143.44580696982862 -18.702068274296835 1
vertex 62.178284556316015 -18.702068274296835 1
endloop
endfacet
facet normal 0 0 1
outer loop
vertex 143.48892922905475 -18.842818234079207 1
vertex 62.178284556316015 -18.702068274296835 1
vertex 62.602234506240926 -18.842818234079207 1
endloop
endfacet
facet normal 0 0 1
outer loop
vertex 143.44580696982862 -18.702068274296835 1
vertex 143.4224495350712 -18.625830199999996 1
vertex 61.738139499999974 -18.625830199999996 1
endloop
endfacet
facet normal 0 0 1
outer loop
vertex 143.44580696982862 -18.702068274296835 1
vertex 61.738139499999974 -18.625830199999996 1
vertex 62.178284556316015 -18.702068274296835 1
endloop
endfacet
facet normal 0 0 1
outer loop
vertex 143.4224495350712 -18.625830199999996 1
vertex 118.05498189999987 64.17294040000037 1
vertex 117.87570324783253 64.62403651746627 1
endloop
endfacet
facet normal 0 0 1
outer loop
vertex 143.4224495350712 -18.625830199999996 1
vertex 117.87570324783253 64.62403651746627 1
vertex 117.62602189198876 65.04031479298646 1
endloop
endfacet
facet normal 0 0 1
outer loop
vertex 143.4224495350712 -18.625830199999996 1
vertex 117.62602189198876 65.04031479298646 1
vertex 117.31247377290453 65.41087647360808 1
endloop
endfacet
facet normal 0 0 1
outer loop
vertex 143.4224495350712 -18.625830199999996 1
vertex 117.31247377290453 65.41087647360808 1
vertex 116.94326787236011 65.72601990941028 1
endloop
endfacet
facet normal 0 0 1
outer loop
vertex 143.4224495350712 -18.625830199999996 1
vertex 116.94326787236011 65.72601990941028 1
vertex 116.52807034469046 65.97749435173606 1
endloop
endfacet
facet normal 0 0 1
outer loop
vertex 143.4224495350712 -18.625830199999996 1
vertex 116.52807034469046 65.97749435173606 1
vertex 116.07775144786288 66.15871596547534 1
endloop
endfacet
facet normal 0 0 1
outer loop
vertex 143.4224495350712 -18.625830199999996 1
vertex 116.07775144786288 66.15871596547534 1
vertex 115.60410094999995 66.26494019999998 1
endloop
endfacet
facet normal 0 0 1
outer loop
vertex 143.4224495350712 -18.625830199999996 1
vertex 115.60410094999995 66.26494019999998 1
vertex 99.19620330000025 68.57091959999995 1
endloop
endfacet
facet normal 0 0 1
outer loop
vertex 143.4224495350712 -18.625830199999996 1
vertex 99.19620330000025 68.57091959999995 1
vertex -10.341340654212495 68.57091959999995 1
endloop
endfacet
facet normal 0 0 1
outer loop
vertex 143.4224495350712 -18.625830199999996 1
vertex -10.341340654212495 68.57091959999995 1
vertex -10.560410027457237 68.39531564807434 1
endloop
endfacet
facet normal 0 0 1
outer loop
vertex 143.4224495350712 -18.625830199999996 1
vertex -10.560410027457237 68.39531564807434 1
vertex -10.886485762219166 68.03266567172516 1
endloop
endfacet
facet normal 0 0 1
outer loop
vertex 143.4224495350712 -18.625830199999996 1
vertex -10.886485762219166 68.03266567172516 1
vertex -11.14949456149715 67.62197508058784 1
endloop
endfacet
facet normal 0 0 1
outer loop
vertex 143.4224495350712 -18.625830199999996 1
vertex -11.14949456149715 67.62197508058784 1
vertex -11.342485968021123 67.17409707582057 1
endloop
endfacet
facet normal 0 0 1
outer loop
vertex 143.4224495350712 -18.625830199999996 1
vertex -11.342485968021123 67.17409707582057 1
vertex -11.460359853855223 66.70086759957799 1
endloop
endfacet
facet normal 0 0 1
outer loop
vertex 143.4224495350712 -18.625830199999996 1
vertex -11.460359853855223 66.70086759957799 1
vertex -11.5000012 66.21479254999998 1
endloop
endfacet
facet normal 0 0 1
outer loop
vertex 143.4224495350712 -18.625830199999996 1
vertex -11.5000012 66.21479254999998 1
vertex -11.499999900000006 -8.777723599999945 1
endloop
endfacet
facet normal 0 0 1
outer loop
vertex 143.4224495350712 -18.625830199999996 1
vertex -11.499999900000006 -8.777723599999945 1
vertex -11.459865714720337 -9.266797219830679 1
endloop
endfacet
facet normal 0 0 1
outer loop
vertex 143.4224495350712 -18.625830199999996 1
vertex -11.459865714720337 -9.266797219830679 1
vertex -11.340536810123965 -9.742786858007705 1
endloop
endfacet
facet normal 0 0 1
outer loop
vertex 143.4224495350712 -18.625830199999996 1
vertex -11.340536810123965 -9.742786858007705 1
vertex -11.145206020577021 -10.192955055217354 1
endloop
endfacet
facet normal 0 0 1
outer loop
vertex 143.4224495350712 -18.625830199999996 1
vertex -11.145206020577021 -10.192955055217354 1
vertex -10.879099649741619 -10.605257034990458 1
endloop
endfacet
facet normal 0 0 1
outer loop
vertex 143.4224495350712 -18.625830199999996 1
vertex -10.879099649741619 -10.605257034990458 1
vertex -10.549337684710537 -10.968661175779943 1
endloop
endfacet
facet normal 0 0 1
outer loop
vertex 143.4224495350712 -18.625830199999996 1
vertex -10.549337684710537 -10.968661175779943 1
vertex -10.16474329242783 -11.273444174893669 1
endloop
endfacet
facet normal 0 0 1
outer loop
vertex 143.4224495350712 -18.625830199999996 1
vertex -10.16474329242783 -11.273444174893669 1
vertex -9.735606745540721 -11.51145120682709 1
endloop
endfacet
facet normal 0 0 1
outer loop
vertex 143.4224495350712 -18.625830199999996 1
vertex -9.735606745540721 -11.51145120682709 1
vertex -9.27341009412271 -11.676314115154582 1
endloop
endfacet
facet normal 0 0 1
outer loop
vertex 143.4224495350712 -18.625830199999996 1
vertex -9.27341009412271 -11.676314115154582 1
vertex -8.790519950000117 -11.763621799999992 1
endloop
endfacet
facet normal 0 0 1
outer loop
vertex 143.4224495350712 -18.625830199999996 1
vertex -8.790519950000117 -11.763621799999992 1
vertex 61.738139499999974 -18.625830199999996 1
endloop
endfacet
facet normal 0 0 1
outer loop
vertex 99.19620330000025 68.57091959999995 1
vertex 98.85920945666822 68.63815647817084 1
vertex -10.257461330323078 68.63815647817084 1
endloop
endfacet
facet normal 0 0 1
outer loop
vertex 99.19620330000025 68.57091959999995 1
vertex -10.257461330323078 68.63815647817084 1
vertex -10.341340654212495 68.57091959999995 1
endloop
endfacet
facet normal 0 0 1
outer loop
vertex 98.85920945666822 68.63815647817084 1
vertex 98.53211218916408 68.7434905030451 1
vertex -10.103278566764853 68.7434905030451 1
endloop
endfacet
facet normal 0 0 1
outer loop
vertex 98.85920945666822 68.63815647817084 1
vertex -10.103278566764853 68.7434905030451 1
vertex -10.179884466097576 68.70034136387267 1
endloop
endfacet
facet normal 0 0 1
outer loop
vertex 98.85920945666822 68.63815647817084 1
vertex -10.179884466097576 68.70034136387267 1
vertex -10.257461330323078 68.63815647817084 1
endloop
endfacet
facet normal 0 0 1
outer loop
vertex 98.53211218916408 68.7434905030451 1
vertex 98.21920665000013 68.88553979999995 1
vertex -9.851087808119065 68.88553979999995 1
endloop
endfacet
facet normal 0 0 1
outer loop
vertex 98.53211218916408 68.7434905030451 1
vertex -9.851087808119065 68.88553979999995 1
vertex -10.103278566764853 68.7434905030451 1
endloop
endfacet
facet normal 0 0 1
outer loop
vertex 98.21920665000013 68.88553979999995 1
vertex 76.80089169999984 80.13029960000009 1
vertex 76.531402677525 80.25517910816058 1
endloop
endfacet
facet normal 0 0 1
outer loop
vertex 98.21920665000013 68.88553979999995 1
vertex 76.531402677525 80.25517910816058 1
vertex 76.25088157967876 80.35279737120828 1
endloop
endfacet
facet normal 0 0 1
outer loop
vertex 98.21920665000013 68.88553979999995 1
vertex 76.25088157967876 80.35279737120828 1
vertex 75.96208233059869 80.42219769792482 1
endloop
endfacet
facet normal 0 0 1
outer loop
vertex 98.21920665000013 68.88553979999995 1
vertex 75.96208233059869 80.42219769792482 1
vertex 75.66783585000006 80.46269979999998 1
endloop
endfacet
facet normal 0 0 1
outer loop
vertex 98.21920665000013 68.88553979999995 1
vertex 75.66783585000006 80.46269979999998 1
vertex 53.58973779999968 82.39428140000003 1
endloop
endfacet
facet normal 0 0 1
outer loop
vertex 98.21920665000013 68.88553979999995 1
vertex 53.58973779999968 82.39428140000003 1
vertex 53.355166156800905 82.40557691822188 1
endloop
endfacet
facet normal 0 0 1
outer loop
vertex 98.21920665000013 68.88553979999995 1
vertex 53.355166156800905 82.40557691822188 1
vertex 53.12043389999957 82.39848569999998 1
endloop
endfacet
facet normal 0 0 1
outer loop
vertex 98.21920665000013 68.88553979999995 1
vertex 53.12043389999957 82.39848569999998 1
vertex 34.46563700000026 81.10297440000002 1
endloop
endfacet
facet normal 0 0 1
outer loop
vertex 98.21920665000013 68.88553979999995 1
vertex 34.46563700000026 81.10297440000002 1
vertex 34.26720080806476 81.08254481245211 1
endloop
endfacet
facet normal 0 0 1
outer loop
vertex 98.21920665000013 68.88553979999995 1
vertex 34.26720080806476 81.08254481245211 1
vertex 34.07056433702762 81.04897533749711 1
endloop
endfacet
facet normal 0 0 1
outer loop
vertex 98.21920665000013 68.88553979999995 1
vertex 34.07056433702762 81.04897533749711 1
vertex 33.87659350000028 81.00241220000007 1
endloop
endfacet
facet normal 0 0 1
outer loop
vertex 98.21920665000013 68.88553979999995 1
vertex 33.87659350000028 81.00241220000007 1
vertex -9.296882400000072 69.10701509999997 1
endloop
endfacet
facet normal 0 0 1
outer loop
vertex 98.21920665000013 68.88553979999995 1
vertex -9.296882400000072 69.10701509999997 1
vertex -9.754965116803831 68.93968199298139 1
endloop
endfacet
facet normal 0 0 1
outer loop
vertex 98.21920665000013 68.88553979999995 1
vertex -9.754965116803831 68.93968199298139 1
vertex -9.851087808119065 68.88553979999995 1
endloop
endfacet
facet normal -1 -1.7335054280920303e-8 0
outer loop
vertex -11.499999900000006 -8.777723599999945 1
vertex -11.5000012 66.21479254999998 1
vertex -11.500001200000014 66.21479254999988 0
endloop
endfacet
facet normal -1 -1.7335054280920303e-8 0
outer loop
vertex -11.499999900000006 -8.777723599999945 1
vertex -11.500001200000014 66.21479254999988 0
vertex -11.499999900000006 -8.777723599999916 0
endloop
endfacet
facet normal -0.9966498540259605 -0.08178672551234456 0
outer loop
vertex -11.459865714720337 -9.266797219830679 1
vertex -11.499999900000006 -8.777723599999945 1
vertex -11.499999900000006 -8.777723599999916 0
endloop
endfacet
facet normal -0.9966498540259605 -0.08178672551234456 0
outer loop
vertex -11.459865714720337 -9.266797219830679 1
vertex -11.499999900000006 -8.777723599999916 0
vertex -11.459865714720337 -9.26679721983069 0
endloop
endfacet
facet normal -0.96998334387121 -0.24317136470486383 0
outer loop
vertex -11.340536810123965 -9.742786858007705 1
vertex -11.459865714720337 -9.266797219830679 1
vertex -11.459865714720337 -9.26679721983069 0
endloop
endfacet
facet normal -0.96998334387121 -0.24317136470486383 0
outer loop
vertex -11.340536810123965 -9.742786858007705 1
vertex -11.459865714720337 -9.26679721983069 0
vertex -11.340536810123979 -9.74278685800768 0
endloop
endfacet
facet normal -0.9173637789811254 -0.39804986749585664 0
outer loop
vertex -11.145206020577021 -10.192955055217354 1
vertex -11.340536810123965 -9.742786858007705 1
vertex -11.340536810123979 -9.74278685800768 0
endloop
endfacet
facet normal -0.9173637789811254 -0.39804986749585664 0
outer loop
vertex -11.145206020577021 -10.192955055217354 1
vertex -11.340536810123979 -9.74278685800768 0
vertex -11.145206020577007 -10.192955055217364 0
endloop
endfacet
facet normal -0.8401990735696291 -0.5422780806677852 0
outer loop
vertex -10.879099649741619 -10.605257034990458 1
vertex -11.145206020577021 -10.192955055217354 1
vertex -11.145206020577007 -10.192955055217364 0
endloop
endfacet
facet normal -0.8401990735696291 -0.5422780806677852 0
outer loop
vertex -10.879099649741619 -10.605257034990458 1
vertex -11.145206020577007 -10.192955055217364 0
vertex -10.87909964974159 -10.605257034990487 0
endloop
endfacet
facet normal -0.7405538595537847 -0.6719970097403659 0
outer loop
vertex -10.549337684710537 -10.968661175779943 1
vertex -10.879099649741619 -10.605257034990458 1
vertex -10.87909964974159 -10.605257034990487 0
endloop
endfacet
facet normal -0.7405538595537847 -0.6719970097403659 0
outer loop
vertex -10.549337684710537 -10.968661175779943 1
vertex -10.87909964974159 -10.605257034990487 0
vertex -10.549337684710551 -10.96866117577993 0
endloop
endfacet
facet normal -0.6210942611433327 -0.7837358730942572 0
outer loop
vertex -10.16474329242783 -11.273444174893669 1
vertex -10.549337684710537 -10.968661175779943 1
vertex -10.549337684710551 -10.96866117577993 0
endloop
endfacet
facet normal -0.6210942611433327 -0.7837358730942572 0
outer loop
vertex -10.16474329242783 -11.273444174893669 1
vertex -10.549337684710551 -10.96866117577993 0
vertex -10.164743292427872 -11.273444174893651 0
endloop
endfacet
facet normal -0.4850165595702213 -0.8745049667913076 0
outer loop
vertex -9.735606745540721 -11.51145120682709 1
vertex -10.16474329242783 -11.273444174893669 1
vertex -10.164743292427872 -11.273444174893651 0
endloop
endfacet
facet normal -0.4850165595702213 -0.8745049667913076 0
outer loop
vertex -9.735606745540721 -11.51145120682709 1
vertex -10.164743292427872 -11.273444174893651 0
vertex -9.735606745540665 -11.511451206827122 0
endloop
endfacet
facet normal -0.3359616728469845 -0.9418756575991631 0
outer loop
vertex -9.27341009412271 -11.676314115154582 1
vertex -9.735606745540721 -11.51145120682709 1
vertex -9.735606745540665 -11.511451206827122 0
endloop
endfacet
facet normal -0.3359616728469845 -0.9418756575991631 0
outer loop
vertex -9.27341009412271 -11.676314115154582 1
vertex -9.735606745540665 -11.511451206827122 0
vertex -9.273410094122838 -11.676314115154549 0
endloop
endfacet
facet normal -0.17791773874823846 -0.9840453639130229 0
outer loop
vertex -8.790519950000117 -11.763621799999992 1
vertex -9.27341009412271 -11.676314115154582 1
vertex -9.273410094122838 -11.676314115154549 0
endloop
endfacet
facet normal -0.17791773874823846 -0.9840453639130229 0
outer loop
vertex -8.790519950000117 -11.763621799999992 1
vertex -9.273410094122838 -11.676314115154549 0
vertex -8.790519950000004 -11.7636218 0
endloop
endfacet
facet normal -0.09683944349331775 -0.9953000161679415 0
outer loop
vertex 61.738139499999974 -18.625830199999996 1
vertex -8.790519950000117 -11.763621799999992 1
vertex -8.790519950000004 -11.7636218 0
endloop
endfacet
facet normal -0.09683944349331775 -0.9953000161679415 0
outer loop
vertex 61.738139499999974 -18.625830199999996 1
vertex -8.790519950000004 -11.7636218 0
vertex 61.73813949999999 -18.6258302 0
endloop
endfacet
facet normal -0.17066993650585083 -0.9853282563557635 0
outer loop
vertex 62.178284556316015 -18.702068274296835 1
vertex 61.738139499999974 -18.625830199999996 1
vertex 61.73813949999999 -18.6258302 0
endloop
endfacet
facet normal -0.17066993650585083 -0.9853282563557635 0
outer loop
vertex 62.178284556316015 -18.702068274296835 1
vertex 61.73813949999999 -18.6258302 0
vertex 62.17828455631599 -18.702068274296828 0
endloop
endfacet
facet normal -0.31508579297452943 -0.9490631923458059 0
outer loop
vertex 62.602234506240926 -18.842818234079207 1
vertex 62.178284556316015 -18.702068274296835 1
vertex 62.17828455631599 -18.702068274296828 0
endloop
endfacet
facet normal -0.31508579297452943 -0.9490631923458059 0
outer loop
vertex 62.602234506240926 -18.842818234079207 1
vertex 62.17828455631599 -18.702068274296828 0
vertex 62.60223450624095 -18.842818234079214 0
endloop
endfacet
facet normal -0.45251727422821364 -0.8917556372264028 0
outer loop
vertex 63.00058496466822 -19.044959332055033 1
vertex 62.602234506240926 -18.842818234079207 1
vertex 62.60223450624095 -18.842818234079214 0
endloop
endfacet
facet normal -0.45251727422821364 -0.8917556372264028 0
outer loop
vertex 63.00058496466822 -19.044959332055033 1
vertex 62.60223450624095 -18.842818234079214 0
vertex 63.00058496466822 -19.04495933205503 0
endloop
endfacet
facet normal -0.5799157380043845 -0.8146764614341269 0
outer loop
vertex 63.36450387735554 -19.30400978314246 1
vertex 63.00058496466822 -19.044959332055033 1
vertex 63.00058496466822 -19.04495933205503 0
endloop
endfacet
facet normal -0.5799157380043845 -0.8146764614341269 0
outer loop
vertex 63.36450387735554 -19.30400978314246 1
vertex 63.00058496466822 -19.04495933205503 0
vertex 63.36450387735551 -19.304009783142437 0
endloop
endfacet
facet normal -0.6944565606113712 -0.7195346311497629 0
outer loop
vertex 63.68592259141525 -19.614226032672196 1
vertex 63.36450387735554 -19.30400978314246 1
vertex 63.36450387735551 -19.304009783142437 0
endloop
endfacet
facet normal -0.6944565606113712 -0.7195346311497629 0
outer loop
vertex 63.68592259141525 -19.614226032672196 1
vertex 63.36450387735551 -19.304009783142437 0
vertex 63.68592259141527 -19.614226032672217 0
endloop
endfacet
facet normal -0.7936001924219088 -0.6084395899248418 0
outer loop
vertex 63.957714750000065 -19.968730100000084 1
vertex 63.68592259141525 -19.614226032672196 1
vertex 63.68592259141527 -19.614226032672217 0
endloop
endfacet
facet normal -0.7936001924219088 -0.6084395899248418 0
outer loop
vertex 63.957714750000065 -19.968730100000084 1
vertex 63.68592259141527 -19.614226032672217 0
vertex 63.9577147500001 -19.96873010000013 0
endloop
endfacet
facet normal -0.8366965963660997 -0.5476666920941825 0
outer loop
vertex 99.12142790000004 -73.69001630000004 1
vertex 63.957714750000065 -19.968730100000084 1
vertex 63.9577147500001 -19.96873010000013 0
endloop
endfacet
facet normal -0.8366965963660997 -0.5476666920941825 0
outer loop
vertex 99.12142790000004 -73.69001630000004 1
vertex 63.9577147500001 -19.96873010000013 0
vertex 99.12142790000007 -73.69001630000008 0
endloop
endfacet
facet normal -0.7885626072305915 -0.6149544816307075 0
outer loop
vertex 99.42644062527016 -74.08113732938048 1
vertex 99.12142790000004 -73.69001630000004 1
vertex 99.12142790000007 -73.69001630000008 0
endloop
endfacet
facet normal -0.7885626072305915 -0.6149544816307075 0
outer loop
vertex 99.42644062527016 -74.08113732938048 1
vertex 99.12142790000007 -73.69001630000008 0
vertex 99.42644062527013 -74.08113732938045 0
endloop
endfacet
facet normal -0.6764593315633098 -0.7364799880111612 0
outer loop
vertex 99.79173269173386 -74.41665931385789 1
vertex 99.42644062527016 -74.08113732938048 1
vertex 99.42644062527013 -74.08113732938045 0
endloop
endfacet
facet normal -0.6764593315633098 -0.7364799880111612 0
outer loop
vertex 99.79173269173386 -74.41665931385789 1
vertex 99.42644062527013 -74.08113732938045 0
vertex 99.79173269173384 -74.41665931385788 0
endloop
endfacet
facet normal -0.5458666283270351 -0.8378720809758937 0
outer loop
vertex 100.20731495992062 -74.68740767351608 1
vertex 99.79173269173386 -74.41665931385789 1
vertex 99.79173269173384 -74.41665931385788 0
endloop
endfacet
facet normal -0.5458666283270351 -0.8378720809758937 0
outer loop
vertex 100.20731495992062 -74.68740767351608 1
vertex 99.79173269173384 -74.41665931385788 0
vertex 100.20731495992062 -74.68740767351608 0
endloop
endfacet
facet normal -0.40035276416295285 -0.9163610992545915 0
outer loop
vertex 100.66182756721845 -74.88598155320894 1
vertex 100.20731495992062 -74.68740767351608 1
vertex 100.20731495992062 -74.68740767351608 0
endloop
endfacet
facet normal -0.40035276416295285 -0.9163610992545915 0
outer loop
vertex 100.66182756721845 -74.88598155320894 1
vertex 100.20731495992062 -74.68740767351608 0
vertex 100.66182756721845 -74.88598155320894 0
endloop
endfacet
facet normal -0.24389533299552132 -0.9698015603941891 0
outer loop
vertex 101.14284649756665 -75.00695297353407 1
vertex 100.66182756721845 -74.88598155320894 1
vertex 100.66182756721845 -74.88598155320894 0
endloop
endfacet
facet normal -0.24389533299552132 -0.9698015603941891 0
outer loop
vertex 101.14284649756665 -75.00695297353407 1
vertex 100.66182756721845 -74.88598155320894 0
vertex 101.14284649756671 -75.00695297353408 0
endloop
endfacet
facet normal -0.0807710690811945 -0.9967326795081423 0
outer loop
vertex 101.63722318958344 -75.04701520362241 1
vertex 101.14284649756665 -75.00695297353407 1
vertex 101.14284649756671 -75.00695297353408 0
endloop
endfacet
facet normal -0.0807710690811945 -0.9967326795081423 0
outer loop
vertex 101.63722318958344 -75.04701520362241 1
vertex 101.14284649756671 -75.00695297353408 0
vertex 101.63722318958335 -75.04701520362241 0
endloop
endfacet
facet normal 0.08456105671284317 -0.9964182995547641 0
outer loop
vertex 102.13144395000002 -75.00507315000003 1
vertex 101.63722318958344 -75.04701520362241 1
vertex 101.63722318958335 -75.04701520362241 0
endloop
endfacet
facet normal 0.08456105671284317 -0.9964182995547641 0
outer loop
vertex 102.13144395000002 -75.00507315000003 1
vertex 101.63722318958335 -75.04701520362241 0
vertex 102.1314439499999 -75.00507315000003 0
endloop
endfacet
facet normal 0.166641214617357 -0.9860175990269403 0
outer loop
vertex 134.7058460999996 -69.49985910000007 1
vertex 102.13144395000002 -75.00507315000003 1
vertex 102.1314439499999 -75.00507315000003 0
endloop
endfacet
facet normal 0.166641214617357 -0.9860175990269403 0
outer loop
vertex 134.7058460999996 -69.49985910000007 1
vertex 102.1314439499999 -75.00507315000003 0
vertex 134.7058461000001 -69.49985909999998 0
endloop
endfacet
facet normal 0.20210905636747603 -0.9793630222416243 0
outer loop
vertex 134.91787938336867 -69.45610224391402 1
vertex 134.7058460999996 -69.49985910000007 1
vertex 134.7058461000001 -69.49985909999998 0
endloop
endfacet
facet normal 0.20210905636747603 -0.9793630222416243 0
outer loop
vertex 134.91787938336867 -69.45610224391402 1
vertex 134.7058461000001 -69.49985909999998 0
vertex 134.9178793833685 -69.45610224391407 0
endloop
endfacet
facet normal 0.27221469675620874 -0.9622365399785675 0
outer loop
vertex 135.12620772430418 -69.39716659368943 1
vertex 134.91787938336867 -69.45610224391402 1
vertex 134.9178793833685 -69.45610224391407 0
endloop
endfacet
facet normal 0.27221469675620874 -0.9622365399785675 0
outer loop
vertex 135.12620772430418 -69.39716659368943 1
vertex 134.9178793833685 -69.45610224391407 0
vertex 135.1262077243041 -69.39716659368948 0
endloop
endfacet
facet normal 0.3409033741012595 -0.9400983403486982 0
outer loop
vertex 135.32974305000042 -69.32335954999984 1
vertex 135.12620772430418 -69.39716659368943 1
vertex 135.1262077243041 -69.39716659368948 0
endloop
endfacet
facet normal 0.3409033741012595 -0.9400983403486982 0
outer loop
vertex 135.32974305000042 -69.32335954999984 1
vertex 135.1262077243041 -69.39716659368948 0
vertex 135.3297430499997 -69.3233595500001 0
endloop
endfacet
facet normal 0.3746066788827272 -0.9271838200359481 0
outer loop
vertex 153.80228590000002 -61.85996579999997 1
vertex 135.32974305000042 -69.32335954999984 1
vertex 135.3297430499997 -69.3233595500001 0
endloop
endfacet
facet normal 0.3746066788827272 -0.9271838200359481 0
outer loop
vertex 153.80228590000002 -61.85996579999997 1
vertex 135.3297430499997 -69.3233595500001 0
vertex 153.80228589999982 -61.85996580000008 0
endloop
endfacet
facet normal 0.4496927202134362 -0.8931833279831416 0
outer loop
vertex 154.24364623593178 -61.63775326664735 1
vertex 153.80228590000002 -61.85996579999997 1
vertex 153.80228589999982 -61.85996580000008 0
endloop
endfacet
facet normal 0.4496927202134362 -0.8931833279831416 0
outer loop
vertex 154.24364623593178 -61.63775326664735 1
vertex 153.80228589999982 -61.85996580000008 0
vertex 154.24364623593164 -61.63775326664742 0
endloop
endfacet
facet normal 0.590214645038344 -0.8072463519782928 0
outer loop
vertex 154.64254430156996 -61.346100687926935 1
vertex 154.24364623593178 -61.63775326664735 1
vertex 154.24364623593164 -61.63775326664742 0
endloop
endfacet
facet normal 0.590214645038344 -0.8072463519782928 0
outer loop
vertex 154.64254430156996 -61.346100687926935 1
vertex 154.24364623593164 -61.63775326664742 0
vertex 154.64254430157018 -61.346100687926736 0
endloop
endfacet
facet normal 0.7147223396603346 -0.6994083050625416 0
outer loop
vertex 154.988154559575 -60.992923051310385 1
vertex 154.64254430156996 -61.346100687926935 1
vertex 154.64254430157018 -61.346100687926736 0
endloop
endfacet
facet normal 0.7147223396603346 -0.6994083050625416 0
outer loop
vertex 154.988154559575 -60.992923051310385 1
vertex 154.64254430157018 -61.346100687926736 0
vertex 154.98815455957498 -60.99292305131044 0
endloop
endfacet
facet normal 0.8198387521198839 -0.5725944642786129 0
outer loop
vertex 155.27110018532656 -60.58780249355897 1
vertex 154.988154559575 -60.992923051310385 1
vertex 154.98815455957498 -60.99292305131044 0
endloop
endfacet
facet normal 0.8198387521198839 -0.5725944642786129 0
outer loop
vertex 155.27110018532656 -60.58780249355897 1
vertex 154.98815455957498 -60.99292305131044 0
vertex 155.27110018532656 -60.587802493558996 0
endloop
endfacet
facet normal 0.9027119469157014 -0.4302454426204463 0
outer loop
vertex 155.48370452152497 -60.14173042575624 1
vertex 155.27110018532656 -60.58780249355897 1
vertex 155.27110018532656 -60.587802493558996 0
endloop
endfacet
facet normal 0.9027119469157014 -0.4302454426204463 0
outer loop
vertex 155.48370452152497 -60.14173042575624 1
vertex 155.27110018532656 -60.587802493558996 0
vertex 155.483704521525 -60.141730425756236 0
endloop
endfacet
facet normal 0.9610934739647744 -0.2762233413423306 0
outer loop
vertex 155.62019935519703 -59.66680932301881 1
vertex 155.48370452152497 -60.14173042575624 1
vertex 155.483704521525 -60.141730425756236 0
endloop
endfacet
facet normal 0.9610934739647744 -0.2762233413423306 0
outer loop
vertex 155.62019935519703 -59.66680932301881 1
vertex 155.483704521525 -60.141730425756236 0
vertex 155.62019935519703 -59.66680932301888 0
endloop
endfacet
facet normal 0.9933993717742631 -0.11470696647762679 0
outer loop
vertex 155.67688141629404 -59.17592436970072 1
vertex 155.62019935519703 -59.66680932301881 1
vertex 155.62019935519703 -59.66680932301888 0
endloop
endfacet
facet normal 0.9933993717742631 -0.11470696647762679 0
outer loop
vertex 155.67688141629404 -59.17592436970072 1
vertex 155.62019935519703 -59.66680932301888 0
vertex 155.676881416294 -59.17592436970082 0
endloop
endfacet
facet normal 0.9987531422340898 0.04992154722694407 0
outer loop
vertex 155.65221285189148 -58.6823938687436 1
vertex 155.67688141629404 -59.17592436970072 1
vertex 155.676881416294 -59.17592436970082 0
endloop
endfacet
facet normal 0.9987531422340898 0.04992154722694407 0
outer loop
vertex 155.65221285189148 -58.6823938687436 1
vertex 155.676881416294 -59.17592436970082 0
vertex 155.65221285189142 -58.68239386874361 0
endloop
endfacet
facet normal 0.977009531071564 0.21319562893108954 0
outer loop
vertex 155.54686295000013 -58.199607900000515 1
vertex 155.65221285189148 -58.6823938687436 1
vertex 155.65221285189142 -58.68239386874361 0
endloop
endfacet
facet normal 0.977009531071564 0.21319562893108954 0
outer loop
vertex 155.54686295000013 -58.199607900000515 1
vertex 155.65221285189142 -58.68239386874361 0
vertex 155.54686294999996 -58.199607900000004 0
endloop
endfacet
facet normal 0 0 -1
outer loop
vertex 118.05498189999987 64.17294040000037 1
vertex 143.4224495350712 -18.625830199999996 1
vertex 143.44580696982862 -18.702068274296835 1
endloop
endfacet
facet normal 0 0 -1
outer loop
vertex 118.05498189999987 64.17294040000037 1
vertex 143.44580696982862 -18.702068274296835 1
vertex 143.48892922905475 -18.842818234079207 1
endloop
endfacet
facet normal 0 0 -1
outer loop
vertex 118.05498189999987 64.17294040000037 1
vertex 143.48892922905475 -18.842818234079207 1
vertex 143.55086019401304 -19.044959332055033 1
endloop
endfacet
facet normal 0 0 -1
outer loop
vertex 118.05498189999987 64.17294040000037 1
vertex 143.55086019401304 -19.044959332055033 1
vertex 143.63022675810802 -19.30400978314246 1
endloop
endfacet
facet normal 0 0 -1
outer loop
vertex 118.05498189999987 64.17294040000037 1
vertex 143.63022675810802 -19.30400978314246 1
vertex 143.72526924017382 -19.614226032672196 1
endloop
endfacet
facet normal 0 0 -1
outer loop
vertex 118.05498189999987 64.17294040000037 1
vertex 143.72526924017382 -19.614226032672196 1
vertex 143.83388039936463 -19.968730100000084 1
endloop
endfacet
facet normal 0 0 -1
outer loop
vertex 118.05498189999987 64.17294040000037 1
vertex 143.83388039936463 -19.968730100000084 1
vertex 155.54686295000013 -58.199607900000515 1
endloop
endfacet
facet normal 0 0 -1
outer loop
vertex 118.05498189999987 64.17294040000037 1
vertex 155.54686295000013 -58.199607900000515 1
vertex 155.54686294999996 -58.199607900000004 0
endloop
endfacet
facet normal 0 0 -1
outer loop
vertex 118.05498189999987 64.17294040000037 1
vertex 155.54686294999996 -58.199607900000004 0
vertex 143.83388039936463 -19.96873010000013 0
endloop
endfacet
facet normal 0 0 -1
outer loop
vertex 118.05498189999987 64.17294040000037 1
vertex 143.83388039936463 -19.96873010000013 0
vertex 143.7252692401738 -19.614226032672217 0
endloop
endfacet
facet normal 0 0 -1
outer loop
vertex 118.05498189999987 64.17294040000037 1
vertex 143.7252692401738 -19.614226032672217 0
vertex 143.630226758108 -19.304009783142437 0
endloop
endfacet
facet normal 0 0 -1
outer loop
vertex 118.05498189999987 64.17294040000037 1
vertex 143.630226758108 -19.304009783142437 0
vertex 143.550860194013 -19.04495933205503 0
endloop
endfacet
facet normal 0 0 -1
outer loop
vertex 118.05498189999987 64.17294040000037 1
vertex 143.550860194013 -19.04495933205503 0
vertex 143.48892922905472 -18.842818234079214 0
endloop
endfacet
facet normal 0 0 -1
outer loop
vertex 118.05498189999987 64.17294040000037 1
vertex 143.48892922905472 -18.842818234079214 0
vertex 143.4458069698286 -18.702068274296828 0
endloop
endfacet
facet normal 0 0 -1
outer loop
vertex 118.05498189999987 64.17294040000037 1
vertex 143.4458069698286 -18.702068274296828 0
vertex 143.42244953507117 -18.6258302 0
endloop
endfacet
facet normal 0 0 -1
outer loop
vertex 118.05498189999987 64.17294040000037 1
vertex 143.42244953507117 -18.6258302 0
vertex 118.0549818999999 64.1729404000003 0
endloop
endfacet
facet normal 0.9292982962186499 0.3693300375614126 0
outer loop
vertex 117.87570324783253 64.62403651746627 1
vertex 118.05498189999987 64.17294040000037 1
vertex 118.0549818999999 64.1729404000003 0
endloop
endfacet
facet normal 0.9292982962186499 0.3693300375614126 0
outer loop
vertex 117.87570324783253 64.62403651746627 1
vertex 118.0549818999999 64.1729404000003 0
vertex 117.8757032478325 64.62403651746634 0
endloop
endfacet
facet normal 0.8575707232061963 0.5143660707119022 0
outer loop
vertex 117.62602189198876 65.04031479298646 1
vertex 117.87570324783253 64.62403651746627 1
vertex 117.8757032478325 64.62403651746634 0
endloop
endfacet
facet normal 0.8575707232061963 0.5143660707119022 0
outer loop
vertex 117.62602189198876 65.04031479298646 1
vertex 117.8757032478325 64.62403651746634 0
vertex 117.62602189198873 65.04031479298652 0
endloop
endfacet
facet normal 0.7633904220580735 0.6459373526202029 0
outer loop
vertex 117.31247377290453 65.41087647360808 1
vertex 117.62602189198876 65.04031479298646 1
vertex 117.62602189198873 65.04031479298652 0
endloop
endfacet
facet normal 0.7633904220580735 0.6459373526202029 0
outer loop
vertex 117.31247377290453 65.41087647360808 1
vertex 117.62602189198873 65.04031479298652 0
vertex 117.31247377290461 65.41087647360801 0
endloop
endfacet
facet normal 0.6492238486787868 0.7605973930449037 0
outer loop
vertex 116.94326787236011 65.72601990941028 1
vertex 117.31247377290453 65.41087647360808 1
vertex 117.31247377290461 65.41087647360801 0
endloop
endfacet
facet normal 0.6492238486787868 0.7605973930449037 0
outer loop
vertex 116.94326787236011 65.72601990941028 1
vertex 117.31247377290461 65.41087647360801 0
vertex 116.94326787236014 65.72601990941027 0
endloop
endfacet
facet normal 0.5180599902882375 0.8553442853392729 0
outer loop
vertex 116.52807034469046 65.97749435173606 1
vertex 116.94326787236011 65.72601990941028 1
vertex 116.94326787236014 65.72601990941027 0
endloop
endfacet
facet normal 0.5180599902882375 0.8553442853392729 0
outer loop
vertex 116.52807034469046 65.97749435173606 1
vertex 116.94326787236014 65.72601990941027 0
vertex 116.52807034469048 65.97749435173606 0
endloop
endfacet
facet normal 0.3733328388581177 0.9276974676208504 0
outer loop
vertex 116.07775144786288 66.15871596547534 1
vertex 116.52807034469046 65.97749435173606 1
vertex 116.52807034469048 65.97749435173606 0
endloop
endfacet
facet normal 0.3733328388581177 0.9276974676208504 0
outer loop
vertex 116.07775144786288 66.15871596547534 1
vertex 116.52807034469048 65.97749435173606 0
vertex 116.07775144786291 66.15871596547532 0
endloop
endfacet
facet normal 0.21883148600410612 0.9757626661915462 0
outer loop
vertex 115.60410094999995 66.26494019999998 1
vertex 116.07775144786288 66.15871596547534 1
vertex 116.07775144786291 66.15871596547532 0
endloop
endfacet
facet normal 0.21883148600410612 0.9757626661915462 0
outer loop
vertex 115.60410094999995 66.26494019999998 1
vertex 116.07775144786291 66.15871596547532 0
vertex 115.60410094999975 66.26494020000003 0
endloop
endfacet
facet normal 0.13917308726234978 0.9902680706666587 0
outer loop
vertex 99.19620330000025 68.57091959999995 1
vertex 115.60410094999995 66.26494019999998 1
vertex 115.60410094999975 66.26494020000003 0
endloop
endfacet
facet normal 0.13917308726234978 0.9902680706666587 0
outer loop
vertex 99.19620330000025 68.57091959999995 1
vertex 115.60410094999975 66.26494020000003 0
vertex 99.19620329999985 68.57091960000002 0
endloop
endfacet
facet normal 0.19566312333637337 0.980671169233732 0
outer loop
vertex 98.85920945666822 68.63815647817084 1
vertex 99.19620330000025 68.57091959999995 1
vertex 99.19620329999985 68.57091960000002 0
endloop
endfacet
facet normal 0.19566312333637337 0.980671169233732 0
outer loop
vertex 98.85920945666822 68.63815647817084 1
vertex 99.19620329999985 68.57091960000002 0
vertex 98.85920945666822 68.63815647817083 0
endloop
endfacet
facet normal 0.30652508226428615 0.9518625814385565 0
outer loop
vertex 98.53211218916408 68.7434905030451 1
vertex 98.85920945666822 68.63815647817084 1
vertex 98.85920945666822 68.63815647817083 0
endloop
endfacet
facet normal 0.30652508226428615 0.9518625814385565 0
outer loop
vertex 98.53211218916408 68.7434905030451 1
vertex 98.85920945666822 68.63815647817083 0
vertex 98.53211218916414 68.74349050304508 0
endloop
endfacet
facet normal 0.41336759405758905 0.9105642383615999 0
outer loop
vertex 98.21920665000013 68.88553979999995 1
vertex 98.53211218916408 68.7434905030451 1
vertex 98.53211218916414 68.74349050304508 0
endloop
endfacet
facet normal 0.41336759405758905 0.9105642383615999 0
outer loop
vertex 98.21920665000013 68.88553979999995 1
vertex 98.53211218916414 68.74349050304508 0
vertex 98.21920665000012 68.88553979999996 0
endloop
endfacet
facet normal 0.4648385801087063 0.8853954452347955 0
outer loop
vertex 76.80089169999984 80.13029960000009 1
vertex 98.21920665000013 68.88553979999995 1
vertex 98.21920665000012 68.88553979999996 0
endloop
endfacet
facet normal 0.4648385801087063 0.8853954452347955 0
outer loop
vertex 76.80089169999984 80.13029960000009 1
vertex 98.21920665000012 68.88553979999996 0
vertex 76.80089170000011 80.13029959999994 0
endloop
endfacet
facet normal 0.42044535707932984 0.9073178614523328 0
outer loop
vertex 76.531402677525 80.25517910816058 1
vertex 76.80089169999984 80.13029960000009 1
vertex 76.80089170000011 80.13029959999994 0
endloop
endfacet
facet normal 0.42044535707932984 0.9073178614523328 0
outer loop
vertex 76.531402677525 80.25517910816058 1
vertex 76.80089170000011 80.13029959999994 0
vertex 76.53140267752488 80.25517910816062 0
endloop
endfacet
facet normal 0.32865789895450337 0.944449038040069 0
outer loop
vertex 76.25088157967876 80.35279737120828 1
vertex 76.531402677525 80.25517910816058 1
vertex 76.53140267752488 80.25517910816062 0
endloop
endfacet
facet normal 0.32865789895450337 0.944449038040069 0
outer loop
vertex 76.25088157967876 80.35279737120828 1
vertex 76.53140267752488 80.25517910816062 0
vertex 76.25088157967862 80.35279737120834 0
endloop
endfacet
facet normal 0.23365469588645743 0.9723196403910637 0
outer loop
vertex 75.96208233059869 80.42219769792482 1
vertex 76.25088157967876 80.35279737120828 1
vertex 76.25088157967862 80.35279737120834 0
endloop
endfacet
facet normal 0.23365469588645743 0.9723196403910637 0
outer loop
vertex 75.96208233059869 80.42219769792482 1
vertex 76.25088157967862 80.35279737120834 0
vertex 75.96208233059896 80.42219769792477 0
endloop
endfacet
facet normal 0.13636112091822378 0.9906591970510976 0
outer loop
vertex 75.66783585000006 80.46269979999998 1
vertex 75.96208233059869 80.42219769792482 1
vertex 75.96208233059896 80.42219769792477 0
endloop
endfacet
facet normal 0.13636112091822378 0.9906591970510976 0
outer loop
vertex 75.66783585000006 80.46269979999998 1
vertex 75.96208233059896 80.42219769792477 0
vertex 75.66783584999996 80.4626998 0
endloop
endfacet
facet normal 0.0871556670005873 0.9961947047187527 0
outer loop
vertex 53.58973779999968 82.39428140000003 1
vertex 75.66783585000006 80.46269979999998 1
vertex 75.66783584999996 80.4626998 0
endloop
endfacet
facet normal 0.0871556670005873 0.9961947047187527 0
outer loop
vertex 53.58973779999968 82.39428140000003 1
vertex 75.66783584999996 80.4626998 0
vertex 53.589737799999696 82.39428140000003 0
endloop
endfacet
facet normal 0.048098077139158604 0.9988426177208878 0
outer loop
vertex 53.355166156800905 82.40557691822188 1
vertex 53.58973779999968 82.39428140000003 1
vertex 53.589737799999696 82.39428140000003 0
endloop
endfacet
facet normal 0.048098077139158604 0.9988426177208878 0
outer loop
vertex 53.355166156800905 82.40557691822188 1
vertex 53.589737799999696 82.39428140000003 0
vertex 53.355166156800884 82.40557691822188 0
endloop
endfacet
facet normal -0.030196039913320753 0.9995439956167778 0
outer loop
vertex 53.12043389999957 82.39848569999998 1
vertex 53.355166156800905 82.40557691822188 1
vertex 53.355166156800884 82.40557691822188 0
endloop
endfacet
facet normal -0.030196039913320753 0.9995439956167778 0
outer loop
vertex 53.12043389999957 82.39848569999998 1
vertex 53.355166156800884 82.40557691822188 0
vertex 53.12043389999967 82.39848569999998 0
endloop
endfacet
facet normal -0.06927968985695541 0.9975972757447387 0
outer loop
vertex 34.46563700000026 81.10297440000002 1
vertex 53.12043389999957 82.39848569999998 1
vertex 53.12043389999967 82.39848569999998 0
endloop
endfacet
facet normal -0.06927968985695541 0.9975972757447387 0
outer loop
vertex 34.46563700000026 81.10297440000002 1
vertex 53.12043389999967 82.39848569999998 0
vertex 34.465636999999994 81.10297440000001 0
endloop
endfacet
facet normal -0.10241161544472281 0.9947421077957855 0
outer loop
vertex 34.26720080806476 81.08254481245211 1
vertex 34.46563700000026 81.10297440000002 1
vertex 34.465636999999994 81.10297440000001 0
endloop
endfacet
facet normal -0.10241161544472281 0.9947421077957855 0
outer loop
vertex 34.26720080806476 81.08254481245211 1
vertex 34.465636999999994 81.10297440000001 0
vertex 34.2672008080647 81.08254481245211 0
endloop
endfacet
facet normal -0.16828377161917263 0.9857385922290078 0
outer loop
vertex 34.07056433702762 81.04897533749711 1
vertex 34.26720080806476 81.08254481245211 1
vertex 34.2672008080647 81.08254481245211 0
endloop
endfacet
facet normal -0.16828377161917263 0.9857385922290078 0
outer loop
vertex 34.07056433702762 81.04897533749711 1
vertex 34.2672008080647 81.08254481245211 0
vertex 34.07056433702762 81.04897533749711 0
endloop
endfacet
facet normal -0.23342099949231013 0.9723757694410177 0
outer loop
vertex 33.87659350000028 81.00241220000007 1
vertex 34.07056433702762 81.04897533749711 1
vertex 34.07056433702762 81.04897533749711 0
endloop
endfacet
facet normal -0.23342099949231013 0.9723757694410177 0
outer loop
vertex 33.87659350000028 81.00241220000007 1
vertex 34.07056433702762 81.04897533749711 0
vertex 33.87659350000038 81.00241220000008 0
endloop
endfacet
facet normal -0.2656275276564055 0.9640757317509582 0
outer loop
vertex -9.296882400000072 69.10701509999997 1
vertex 33.87659350000028 81.00241220000007 1
vertex 33.87659350000038 81.00241220000008 0
endloop
endfacet
facet normal -0.2656275276564055 0.9640757317509582 0
outer loop
vertex -9.296882400000072 69.10701509999997 1
vertex 33.87659350000038 81.00241220000008 0
vertex -9.2968824000002 69.10701509999993 0
endloop
endfacet
facet normal -0.3431146766941563 0.9392935210236814 0
outer loop
vertex -9.754965116803831 68.93968199298139 1
vertex -9.296882400000072 69.10701509999997 1
vertex -9.2968824000002 69.10701509999993 0
endloop
endfacet
facet normal -0.3431146766941563 0.9392935210236814 0
outer loop
vertex -9.754965116803831 68.93968199298139 1
vertex -9.2968824000002 69.10701509999993 0
vertex -9.754965116803774 68.93968199298142 0
endloop
endfacet
facet normal 0 0 1
outer loop
vertex -10.179884466097576 68.70034136387267 1
vertex -10.103278566764853 68.7434905030451 1
vertex -9.851087808119065 68.88553979999995 1
endloop
endfacet
facet normal 0 0 1
outer loop
vertex -10.179884466097576 68.70034136387267 1
vertex -9.851087808119065 68.88553979999995 1
vertex -9.754965116803831 68.93968199298139 1
endloop
endfacet
facet normal 0 0 1
outer loop
vertex -10.179884466097576 68.70034136387267 1
vertex -9.754965116803831 68.93968199298139 1
vertex -9.754965116803774 68.93968199298142 0
endloop
endfacet
facet normal 0 0 1
outer loop
vertex -10.179884466097576 68.70034136387267 1
vertex -9.754965116803774 68.93968199298142 0
vertex -9.851087808119033 68.88553979999996 0
endloop
endfacet
facet normal 0 0 1
outer loop
vertex -10.179884466097576 68.70034136387267 1
vertex -9.851087808119033 68.88553979999996 0
vertex -10.103278566764873 68.74349050304508 0
endloop
endfacet
facet normal 0 0 1
outer loop
vertex -10.179884466097576 68.70034136387267 1
vertex -10.103278566764873 68.74349050304508 0
vertex -10.17988446609752 68.7003413638727 0
endloop
endfacet
facet normal 0 0 -1
outer loop
vertex -10.560410027457237 68.39531564807434 1
vertex -10.341340654212495 68.57091959999995 1
vertex -10.257461330323078 68.63815647817084 1
endloop
endfacet
facet normal 0 0 -1
outer loop
vertex -10.560410027457237 68.39531564807434 1
vertex -10.257461330323078 68.63815647817084 1
vertex -10.179884466097576 68.70034136387267 1
endloop
endfacet
facet normal 0 0 -1
outer loop
vertex -10.560410027457237 68.39531564807434 1
vertex -10.179884466097576 68.70034136387267 1
vertex -10.17988446609752 68.7003413638727 0
endloop
endfacet
facet normal 0 0 -1
outer loop
vertex -10.560410027457237 68.39531564807434 1
vertex -10.17988446609752 68.7003413638727 0
vertex -10.25746133032308 68.63815647817083 0
endloop
endfacet
facet normal 0 0 -1
outer loop
vertex -10.560410027457237 68.39531564807434 1
vertex -10.25746133032308 68.63815647817083 0
vertex -10.341340654212393 68.57091960000002 0
endloop
endfacet
facet normal 0 0 -1
outer loop
vertex -10.560410027457237 68.39531564807434 1
vertex -10.341340654212393 68.57091960000002 0
vertex -10.560410027457309 68.39531564807429 0
endloop
endfacet
facet normal -0.7436093625073263 0.6686143252963159 0
outer loop
vertex -10.886485762219166 68.03266567172516 1
vertex -10.560410027457237 68.39531564807434 1
vertex -10.560410027457309 68.39531564807429 0
endloop
endfacet
facet normal -0.7436093625073263 0.6686143252963159 0
outer loop
vertex -10.886485762219166 68.03266567172516 1
vertex -10.560410027457309 68.39531564807429 0
vertex -10.886485762219124 68.03266567172524 0
endloop
endfacet
facet normal -0.8421160584041459 0.5392963417063621 0
outer loop
vertex -11.14949456149715 67.62197508058784 1
vertex -10.886485762219166 68.03266567172516 1
vertex -10.886485762219124 68.03266567172524 0
endloop
endfacet
facet normal -0.8421160584041459 0.5392963417063621 0
outer loop
vertex -11.14949456149715 67.62197508058784 1
vertex -10.886485762219124 68.03266567172524 0
vertex -11.149494561497136 67.62197508058789 0
endloop
endfacet
facet normal -0.918368397425449 0.3957265300813336 0
outer loop
vertex -11.342485968021123 67.17409707582057 1
vertex -11.14949456149715 67.62197508058784 1
vertex -11.149494561497136 67.62197508058789 0
endloop
endfacet
facet normal -0.918368397425449 0.3957265300813336 0
outer loop
vertex -11.342485968021123 67.17409707582057 1
vertex -11.149494561497136 67.62197508058789 0
vertex -11.342485968021123 67.17409707582055 0
endloop
endfacet
facet normal -0.9703512811198882 0.2416989682000974 0
outer loop
vertex -11.460359853855223 66.70086759957799 1
vertex -11.342485968021123 67.17409707582057 1
vertex -11.342485968021123 67.17409707582055 0
endloop
endfacet
facet normal -0.9703512811198882 0.2416989682000974 0
outer loop
vertex -11.460359853855223 66.70086759957799 1
vertex -11.342485968021123 67.17409707582055 0
vertex -11.460359853855223 66.70086759957799 0
endloop
endfacet
facet normal -0.9966909728942603 0.08128409777498291 0
outer loop
vertex -11.5000012 66.21479254999998 1
vertex -11.460359853855223 66.70086759957799 1
vertex -11.460359853855223 66.70086759957799 0
endloop
endfacet
facet normal -0.9966909728942603 0.08128409777498291 0
outer loop
vertex -11.5000012 66.21479254999998 1
vertex -11.460359853855223 66.70086759957799 0
vertex -11.500001200000014 66.21479254999988 0
endloop
endfacet
endsolid csg.js
