solid csg.js
facet normal 0 0 -1
outer loop
vertex 51.7716599 84.56098229999999 0
vertex 77.83089230000009 82.28109260000001 0
vertex 78.12686583858509 82.24026324103235 0
endloop
endfacet
facet normal 0 0 -1
outer loop
vertex 51.7716599 84.56098229999999 0
vertex 78.12686583858509 82.24026324103235 0
vertex 78.41731031690964 82.17019629371093 0
endloop
endfacet
facet normal 0 0 -1
outer loop
vertex 51.7716599 84.56098229999999 0
vertex 78.41731031690964 82.17019629371093 0
vertex 78.69934493327176 82.07158672384216 0
endloop
endfacet
facet normal 0 0 -1
outer loop
vertex 51.7716599 84.56098229999999 0
vertex 78.69934493327176 82.07158672384216 0
vertex 78.97017459999967 81.94541520000016 0
endloop
endfacet
facet normal 0 0 -1
outer loop
vertex 51.7716599 84.56098229999999 0
vertex 78.97017459999967 81.94541520000016 0
vertex 100.47545474999967 70.59050225000016 0
endloop
endfacet
facet normal 0 0 -1
outer loop
vertex 51.7716599 84.56098229999999 0
vertex 100.47545474999967 70.59050225000016 0
vertex -12.324108632523696 70.59050225000016 0
endloop
endfacet
facet normal 0 0 -1
outer loop
vertex 51.7716599 84.56098229999999 0
vertex -12.324108632523696 70.59050225000016 0
vertex -12.184288841217196 70.70295481773657 0
endloop
endfacet
facet normal 0 0 -1
outer loop
vertex 51.7716599 84.56098229999999 0
vertex -12.184288841217196 70.70295481773657 0
vertex -11.760598662145526 70.9426775098271 0
endloop
endfacet
facet normal 0 0 -1
outer loop
vertex 51.7716599 84.56098229999999 0
vertex -11.760598662145526 70.9426775098271 0
vertex -11.303710699999982 71.1107182 0
endloop
endfacet
facet normal 0 0 -1
outer loop
vertex 51.7716599 84.56098229999999 0
vertex -11.303710699999982 71.1107182 0
vertex 32.055264750000255 83.16746665000007 0
endloop
endfacet
facet normal 0 0 -1
outer loop
vertex 51.7716599 84.56098229999999 0
vertex 32.055264750000255 83.16746665000007 0
vertex 32.25143467783177 83.21496992029898 0
endloop
endfacet
facet normal 0 0 -1
outer loop
vertex 51.7716599 84.56098229999999 0
vertex 32.25143467783177 83.21496992029898 0
vertex 32.45035482033995 83.24917486408005 0
endloop
endfacet
facet normal 0 0 -1
outer loop
vertex 51.7716599 84.56098229999999 0
vertex 32.45035482033995 83.24917486408005 0
vertex 32.65112949999975 83.26992329999999 0
endloop
endfacet
facet normal 0 0 -1
outer loop
vertex 51.7716599 84.56098229999999 0
vertex 32.65112949999975 83.26992329999999 0
vertex 51.30235494999949 84.56518614999997 0
endloop
endfacet
facet normal 0 0 -1
outer loop
vertex 51.7716599 84.56098229999999 0
vertex 51.30235494999949 84.56518614999997 0
vertex 51.537087206800486 84.57227736822188 0
endloop
endfacet
facet normal 0 0 -1
outer loop
vertex 100.47545474999967 70.59050225000016 0
vertex 100.7902102733346 70.44686933017866 0
vertex -12.502697038981957 70.44686933017866 0
endloop
endfacet
facet normal 0 0 -1
outer loop
vertex 100.47545474999967 70.59050225000016 0
vertex -12.502697038981957 70.44686933017866 0
vertex -12.324108632523696 70.59050225000016 0
endloop
endfacet
facet normal 0 0 -1
outer loop
vertex 100.7902102733346 70.44686933017866 0
vertex 101.1194097420542 70.3404307802041 0
vertex -12.615131588288575 70.3404307802041 0
endloop
endfacet
facet normal 0 0 -1
outer loop
vertex 100.7902102733346 70.44686933017866 0
vertex -12.615131588288575 70.3404307802041 0
vertex -12.563629638170767 70.39786319754458 0
endloop
endfacet
facet normal 0 0 -1
outer loop
vertex 100.7902102733346 70.44686933017866 0
vertex -12.563629638170767 70.39786319754458 0
vertex -12.502697038981957 70.44686933017866 0
endloop
endfacet
facet normal 0 0 -1
outer loop
vertex 101.1194097420542 70.3404307802041 0
vertex 101.45867950000044 70.27260449999991 0
vertex -12.675954131749418 70.27260449999991 0
endloop
endfacet
facet normal 0 0 -1
outer loop
vertex 101.1194097420542 70.3404307802041 0
vertex -12.675954131749418 70.27260449999991 0
vertex -12.615131588288575 70.3404307802041 0
endloop
endfacet
facet normal 0 0 -1
outer loop
vertex 101.45867950000044 70.27260449999991 0
vertex 117.85537925000027 67.96819804999994 0
vertex 118.33051859921908 67.8615106054761 0
endloop
endfacet
facet normal 0 0 -1
outer loop
vertex 101.45867950000044 70.27260449999991 0
vertex 118.33051859921908 67.8615106054761 0
vertex 118.78213753869704 67.67935697388964 0
endloop
endfacet
facet normal 0 0 -1
outer loop
vertex 101.45867950000044 70.27260449999991 0
vertex 118.78213753869704 67.67935697388964 0
vertex 119.19833643064781 67.42653669318693 0
endloop
endfacet
facet normal 0 0 -1
outer loop
vertex 101.45867950000044 70.27260449999991 0
vertex 119.19833643064781 67.42653669318693 0
vertex 119.56814891465393 67.10971128595409 0
endloop
endfacet
facet normal 0 0 -1
outer loop
vertex 101.45867950000044 70.27260449999991 0
vertex 119.56814891465393 67.10971128595409 0
vertex 119.88183085860865 66.73722873598396 0
endloop
endfacet
facet normal 0 0 -1
outer loop
vertex 101.45867950000044 70.27260449999991 0
vertex 119.88183085860865 66.73722873598396 0
vertex 120.13111710534734 66.31890352854052 0
endloop
endfacet
facet normal 0 0 -1
outer loop
vertex 101.45867950000044 70.27260449999991 0
vertex 120.13111710534734 66.31890352854052 0
vertex 120.30943849999991 65.86575610000025 0
endloop
endfacet
facet normal 0 0 -1
outer loop
vertex 101.45867950000044 70.27260449999991 0
vertex 120.30943849999991 65.86575610000025 0
vertex 146.96085973814183 -22.2674873 0
endloop
endfacet
facet normal 0 0 -1
outer loop
vertex 101.45867950000044 70.27260449999991 0
vertex 146.96085973814183 -22.2674873 0
vertex 59.1382725 -22.2674873 0
endloop
endfacet
facet normal 0 0 -1
outer loop
vertex 101.45867950000044 70.27260449999991 0
vertex 59.1382725 -22.2674873 0
vertex -10.859494950000055 -13.818709049999988 0
endloop
endfacet
facet normal 0 0 -1
outer loop
vertex 101.45867950000044 70.27260449999991 0
vertex -10.859494950000055 -13.818709049999988 0
vertex -11.332832261774499 -13.72240644053818 0
endloop
endfacet
facet normal 0 0 -1
outer loop
vertex 101.45867950000044 70.27260449999991 0
vertex -11.332832261774499 -13.72240644053818 0
vertex -11.784578506532696 -13.551386752624921 0
endloop
endfacet
facet normal 0 0 -1
outer loop
vertex 101.45867950000044 70.27260449999991 0
vertex -11.784578506532696 -13.551386752624921 0
vertex -12.203022293217671 -13.310083622326541 0
endloop
endfacet
facet normal 0 0 -1
outer loop
vertex 101.45867950000044 70.27260449999991 0
vertex -12.203022293217671 -13.310083622326541 0
vertex -12.577315587389691 -13.004752763674862 0
endloop
endfacet
facet normal 0 0 -1
outer loop
vertex 101.45867950000044 70.27260449999991 0
vertex -12.577315587389691 -13.004752763674862 0
vertex -12.897754943388875 -12.64330979108602 0
endloop
endfacet
facet normal 0 0 -1
outer loop
vertex 101.45867950000044 70.27260449999991 0
vertex -12.897754943388875 -12.64330979108602 0
vertex -13.15603306336466 -12.23512500934024 0
endloop
endfacet
facet normal 0 0 -1
outer loop
vertex 101.45867950000044 70.27260449999991 0
vertex -13.15603306336466 -12.23512500934024 0
vertex -13.345454161575404 -11.790780491134257 0
endloop
endfacet
facet normal 0 0 -1
outer loop
vertex 101.45867950000044 70.27260449999991 0
vertex -13.345454161575404 -11.790780491134257 0
vertex -13.461107550702067 -11.321795739899644 0
endloop
endfacet
facet normal 0 0 -1
outer loop
vertex 101.45867950000044 70.27260449999991 0
vertex -13.461107550702067 -11.321795739899644 0
vertex -13.499999900000006 -10.840328099999951 0
endloop
endfacet
facet normal 0 0 -1
outer loop
vertex 101.45867950000044 70.27260449999991 0
vertex -13.499999900000006 -10.840328099999951 0
vertex -13.499995350000006 68.22037909999986 0
endloop
endfacet
facet normal 0 0 -1
outer loop
vertex 101.45867950000044 70.27260449999991 0
vertex -13.499995350000006 68.22037909999986 0
vertex -13.460499498813462 68.7055805166137 0
endloop
endfacet
facet normal 0 0 -1
outer loop
vertex 101.45867950000044 70.27260449999991 0
vertex -13.460499498813462 68.7055805166137 0
vertex -13.343050173103435 69.17800616455749 0
endloop
endfacet
facet normal 0 0 -1
outer loop
vertex 101.45867950000044 70.27260449999991 0
vertex -13.343050173103435 69.17800616455749 0
vertex -13.15073994851221 69.62521653391687 0
endloop
endfacet
facet normal 0 0 -1
outer loop
vertex 101.45867950000044 70.27260449999991 0
vertex -13.15073994851221 69.62521653391687 0
vertex -12.888632574131123 70.03543606202332 0
endloop
endfacet
facet normal 0 0 -1
outer loop
vertex 101.45867950000044 70.27260449999991 0
vertex -12.888632574131123 70.03543606202332 0
vertex -12.675954131749418 70.27260449999991 0
endloop
endfacet
facet normal 0 0 -1
outer loop
vertex 146.96085973814183 -22.2674873 0
vertex 146.98844389096806 -22.35870498153729 0
vertex 59.59380485545196 -22.35870498153729 0
endloop
endfacet
facet normal 0 0 -1
outer loop
vertex 146.96085973814183 -22.2674873 0
vertex 59.59380485545196 -22.35870498153729 0
vertex 59.1382725 -22.2674873 0
endloop
endfacet
facet normal 0 0 -1
outer loop
vertex 146.98844389096806 -22.35870498153729 0
vertex 147.03696511195702 -22.519159185509164 0
vertex 60.02979308151191 -22.519159185509164 0
endloop
endfacet
facet normal 0 0 -1
outer loop
vertex 146.98844389096806 -22.35870498153729 0
vertex 60.02979308151191 -22.519159185509164 0
vertex 59.59380485545196 -22.35870498153729 0
endloop
endfacet
facet normal 0 0 -1
outer loop
vertex 147.03696511195702 -22.519159185509164 0
vertex 147.10526020962897 -22.74500336891556 0
vertex 60.435780383846144 -22.74500336891556 0
endloop
endfacet
facet normal 0 0 -1
outer loop
vertex 147.03696511195702 -22.519159185509164 0
vertex 60.435780383846144 -22.74500336891556 0
vertex 60.02979308151191 -22.519159185509164 0
endloop
endfacet
facet normal 0 0 -1
outer loop
vertex 147.10526020962897 -22.74500336891556 0
vertex 147.1916913819085 -23.03082150505906 0
vertex 60.802030677889235 -23.03082150505906 0
endloop
endfacet
facet normal 0 0 -1
outer loop
vertex 147.10526020962897 -22.74500336891556 0
vertex 60.802030677889235 -23.03082150505906 0
vertex 60.435780383846144 -22.74500336891556 0
endloop
endfacet
facet normal 0 0 -1
outer loop
vertex 147.1916913819085 -23.03082150505906 0
vertex 147.29418590091086 -23.369759316655873 0
vertex 61.119760822359396 -23.369759316655873 0
endloop
endfacet
facet normal 0 0 -1
outer loop
vertex 147.1916913819085 -23.03082150505906 0
vertex 61.119760822359396 -23.369759316655873 0
vertex 60.802030677889235 -23.03082150505906 0
endloop
endfacet
facet normal 0 0 -1
outer loop
vertex 147.29418590091086 -23.369759316655873 0
vertex 147.4102858195556 -23.753688650000136 0
vertex 61.38135125000007 -23.753688650000136 0
endloop
endfacet
facet normal 0 0 -1
outer loop
vertex 147.29418590091086 -23.369759316655873 0
vertex 61.38135125000007 -23.753688650000136 0
vertex 61.119760822359396 -23.369759316655873 0
endloop
endfacet
facet normal 0 0 -1
outer loop
vertex 147.4102858195556 -23.753688650000136 0
vertex 158.16292294999985 -59.3114465999995 0
vertex 158.26635990565134 -59.793410289375025 0
endloop
endfacet
facet normal 0 0 -1
outer loop
vertex 147.4102858195556 -23.753688650000136 0
vertex 158.26635990565134 -59.793410289375025 0
vertex 158.2894754526266 -60.28580634252574 0
endloop
endfacet
facet normal 0 0 -1
outer loop
vertex 147.4102858195556 -23.753688650000136 0
vertex 158.2894754526266 -60.28580634252574 0
vertex 158.2316455014601 -60.775340711511916 0
endloop
endfacet
facet normal 0 0 -1
outer loop
vertex 147.4102858195556 -23.753688650000136 0
vertex 158.2316455014601 -60.775340711511916 0
vertex 158.09443138502274 -61.248796610113374 0
endloop
endfacet
facet normal 0 0 -1
outer loop
vertex 147.4102858195556 -23.753688650000136 0
vertex 158.09443138502274 -61.248796610113374 0
vertex 157.88153770458075 -61.69339134973366 0
endloop
endfacet
facet normal 0 0 -1
outer loop
vertex 147.4102858195556 -23.753688650000136 0
vertex 157.88153770458075 -61.69339134973366 0
vertex 157.59871231041802 -62.09712145523412 0
endloop
endfacet
facet normal 0 0 -1
outer loop
vertex 147.4102858195556 -23.753688650000136 0
vertex 157.59871231041802 -62.09712145523412 0
vertex 157.2535911174146 -62.44908674302536 0
endloop
endfacet
facet normal 0 0 -1
outer loop
vertex 147.4102858195556 -23.753688650000136 0
vertex 157.2535911174146 -62.44908674302536 0
vertex 156.85549194535258 -62.7397846117382 0
endloop
endfacet
facet normal 0 0 -1
outer loop
vertex 147.4102858195556 -23.753688650000136 0
vertex 156.85549194535258 -62.7397846117382 0
vertex 156.41516589999998 -62.96136320000002 0
endloop
endfacet
facet normal 0 0 -1
outer loop
vertex 147.4102858195556 -23.753688650000136 0
vertex 156.41516589999998 -62.96136320000002 0
vertex 134.22459079999967 -71.92693995000015 0
endloop
endfacet
facet normal 0 0 -1
outer loop
vertex 147.4102858195556 -23.753688650000136 0
vertex 134.22459079999967 -71.92693995000015 0
vertex 134.02105547430426 -72.00074699368945 0
endloop
endfacet
facet normal 0 0 -1
outer loop
vertex 147.4102858195556 -23.753688650000136 0
vertex 134.02105547430426 -72.00074699368945 0
vertex 133.8127271333685 -72.0596826439141 0
endloop
endfacet
facet normal 0 0 -1
outer loop
vertex 147.4102858195556 -23.753688650000136 0
vertex 133.8127271333685 -72.0596826439141 0
vertex 133.6006916 -72.10343990000001 0
endloop
endfacet
facet normal 0 0 -1
outer loop
vertex 147.4102858195556 -23.753688650000136 0
vertex 133.6006916 -72.10343990000001 0
vertex 95.0957606 -78.61092724999997 0
endloop
endfacet
facet normal 0 0 -1
outer loop
vertex 147.4102858195556 -23.753688650000136 0
vertex 95.0957606 -78.61092724999997 0
vertex 94.64149262909913 -78.65252818514168 0
endloop
endfacet
facet normal 0 0 -1
outer loop
vertex 147.4102858195556 -23.753688650000136 0
vertex 94.64149262909913 -78.65252818514168 0
vertex 94.18616887390729 -78.62477381343514 0
endloop
endfacet
facet normal 0 0 -1
outer loop
vertex 147.4102858195556 -23.753688650000136 0
vertex 94.18616887390729 -78.62477381343514 0
vertex 93.74031692693491 -78.52830584687624 0
endloop
endfacet
facet normal 0 0 -1
outer loop
vertex 147.4102858195556 -23.753688650000136 0
vertex 93.74031692693491 -78.52830584687624 0
vertex 93.3142453819346 -78.36535473233 0
endloop
endfacet
facet normal 0 0 -1
outer loop
vertex 147.4102858195556 -23.753688650000136 0
vertex 93.3142453819346 -78.36535473233 0
vertex 92.91780548772634 -78.13968808111368 0
endloop
endfacet
facet normal 0 0 -1
outer loop
vertex 147.4102858195556 -23.753688650000136 0
vertex 92.91780548772634 -78.13968808111368 0
vertex 92.56016337635097 -77.85652355762598 0
endloop
endfacet
facet normal 0 0 -1
outer loop
vertex 147.4102858195556 -23.753688650000136 0
vertex 92.56016337635097 -77.85652355762598 0
vertex 92.24958813188422 -77.5224082411328 0
endloop
endfacet
facet normal 0 0 -1
outer loop
vertex 147.4102858195556 -23.753688650000136 0
vertex 92.24958813188422 -77.5224082411328 0
vertex 91.99326120000012 -77.1450645000002 0
endloop
endfacet
facet normal 0 0 -1
outer loop
vertex 147.4102858195556 -23.753688650000136 0
vertex 91.99326120000012 -77.1450645000002 0
vertex 61.38135125000007 -23.753688650000136 0
endloop
endfacet
facet normal 0 0 1
outer loop
vertex 95.09576060000022 -78.61092724999996 1
vertex 133.60069160000012 -72.10343989999997 1
vertex 133.81272713336898 -72.05968264391399 1
endloop
endfacet
facet normal 0 0 1
outer loop
vertex 95.09576060000022 -78.61092724999996 1
vertex 133.81272713336898 -72.05968264391399 1
vertex 134.02105547430395 -72.00074699368956 1
endloop
endfacet
facet normal 0 0 1
outer loop
vertex 95.09576060000022 -78.61092724999996 1
vertex 134.02105547430395 -72.00074699368956 1
vertex 134.2245907999995 -71.92693995000019 1
endloop
endfacet
facet normal 0 0 1
outer loop
vertex 95.09576060000022 -78.61092724999996 1
vertex 134.2245907999995 -71.92693995000019 1
vertex 156.41516589999995 -62.96136320000002 1
endloop
endfacet
facet normal 0 0 1
outer loop
vertex 95.09576060000022 -78.61092724999996 1
vertex 156.41516589999995 -62.96136320000002 1
vertex 156.85549194535267 -62.73978461173816 1
endloop
endfacet
facet normal 0 0 1
outer loop
vertex 95.09576060000022 -78.61092724999996 1
vertex 156.85549194535267 -62.73978461173816 1
vertex 157.25359111741457 -62.44908674302542 1
endloop
endfacet
facet normal 0 0 1
outer loop
vertex 95.09576060000022 -78.61092724999996 1
vertex 157.25359111741457 -62.44908674302542 1
vertex 157.59871231041808 -62.09712145523409 1
endloop
endfacet
facet normal 0 0 1
outer loop
vertex 95.09576060000022 -78.61092724999996 1
vertex 157.59871231041808 -62.09712145523409 1
vertex 157.88153770458075 -61.693391349733716 1
endloop
endfacet
facet normal 0 0 1
outer loop
vertex 95.09576060000022 -78.61092724999996 1
vertex 157.88153770458075 -61.693391349733716 1
vertex 158.09443138502263 -61.2487966101136 1
endloop
endfacet
facet normal 0 0 1
outer loop
vertex 95.09576060000022 -78.61092724999996 1
vertex 158.09443138502263 -61.2487966101136 1
vertex 158.23164550146012 -60.7753407115117 1
endloop
endfacet
facet normal 0 0 1
outer loop
vertex 95.09576060000022 -78.61092724999996 1
vertex 158.23164550146012 -60.7753407115117 1
vertex 158.28947545262662 -60.28580634252559 1
endloop
endfacet
facet normal 0 0 1
outer loop
vertex 95.09576060000022 -78.61092724999996 1
vertex 158.28947545262662 -60.28580634252559 1
vertex 158.26635990565137 -59.79341028937508 1
endloop
endfacet
facet normal 0 0 1
outer loop
vertex 95.09576060000022 -78.61092724999996 1
vertex 158.26635990565137 -59.79341028937508 1
vertex 158.1629229499999 -59.31144659999974 1
endloop
endfacet
facet normal 0 0 1
outer loop
vertex 95.09576060000022 -78.61092724999996 1
vertex 158.1629229499999 -59.31144659999974 1
vertex 147.41028581955558 -23.753688650000132 1
endloop
endfacet
facet normal 0 0 1
outer loop
vertex 95.09576060000022 -78.61092724999996 1
vertex 147.41028581955558 -23.753688650000132 1
vertex 61.38135125000008 -23.753688650000132 1
endloop
endfacet
facet normal 0 0 1
outer loop
vertex 95.09576060000022 -78.61092724999996 1
vertex 61.38135125000008 -23.753688650000132 1
vertex 91.99326120000016 -77.14506450000027 1
endloop
endfacet
facet normal 0 0 1
outer loop
vertex 95.09576060000022 -78.61092724999996 1
vertex 91.99326120000016 -77.14506450000027 1
vertex 92.24958813188415 -77.52240824113271 1
endloop
endfacet
facet normal 0 0 1
outer loop
vertex 95.09576060000022 -78.61092724999996 1
vertex 92.24958813188415 -77.52240824113271 1
vertex 92.56016337635103 -77.85652355762605 1
endloop
endfacet
facet normal 0 0 1
outer loop
vertex 95.09576060000022 -78.61092724999996 1
vertex 92.56016337635103 -77.85652355762605 1
vertex 92.91780548772621 -78.13968808111359 1
endloop
endfacet
facet normal 0 0 1
outer loop
vertex 95.09576060000022 -78.61092724999996 1
vertex 92.91780548772621 -78.13968808111359 1
vertex 93.3142453819346 -78.36535473233 1
endloop
endfacet
facet normal 0 0 1
outer loop
vertex 95.09576060000022 -78.61092724999996 1
vertex 93.3142453819346 -78.36535473233 1
vertex 93.74031692693495 -78.52830584687625 1
endloop
endfacet
facet normal 0 0 1
outer loop
vertex 95.09576060000022 -78.61092724999996 1
vertex 93.74031692693495 -78.52830584687625 1
vertex 94.1861688739072 -78.62477381343513 1
endloop
endfacet
facet normal 0 0 1
outer loop
vertex 95.09576060000022 -78.61092724999996 1
vertex 94.1861688739072 -78.62477381343513 1
vertex 94.64149262909918 -78.65252818514168 1
endloop
endfacet
facet normal 0 0 1
outer loop
vertex 147.41028581955558 -23.753688650000132 1
vertex 147.29418590091083 -23.369759316655887 1
vertex 61.11976082235941 -23.369759316655887 1
endloop
endfacet
facet normal 0 0 1
outer loop
vertex 147.41028581955558 -23.753688650000132 1
vertex 61.11976082235941 -23.369759316655887 1
vertex 61.38135125000008 -23.753688650000132 1
endloop
endfacet
facet normal 0 0 1
outer loop
vertex 147.29418590091083 -23.369759316655887 1
vertex 147.1916913819085 -23.030821505059077 1
vertex 60.80203067788925 -23.030821505059077 1
endloop
endfacet
facet normal 0 0 1
outer loop
vertex 147.29418590091083 -23.369759316655887 1
vertex 60.80203067788925 -23.030821505059077 1
vertex 61.11976082235941 -23.369759316655887 1
endloop
endfacet
facet normal 0 0 1
outer loop
vertex 147.1916913819085 -23.030821505059077 1
vertex 147.10526020962894 -22.745003368915576 1
vertex 60.435780383846165 -22.745003368915576 1
endloop
endfacet
facet normal 0 0 1
outer loop
vertex 147.1916913819085 -23.030821505059077 1
vertex 60.435780383846165 -22.745003368915576 1
vertex 60.80203067788925 -23.030821505059077 1
endloop
endfacet
facet normal 0 0 1
outer loop
vertex 147.10526020962894 -22.745003368915576 1
vertex 147.036965111957 -22.519159185509164 1
vertex 60.029793081511905 -22.519159185509164 1
endloop
endfacet
facet normal 0 0 1
outer loop
vertex 147.10526020962894 -22.745003368915576 1
vertex 60.029793081511905 -22.519159185509164 1
vertex 60.435780383846165 -22.745003368915576 1
endloop
endfacet
facet normal 0 0 1
outer loop
vertex 147.036965111957 -22.519159185509164 1
vertex 146.98844389096803 -22.358704981537297 1
vertex 59.593804855451964 -22.358704981537297 1
endloop
endfacet
facet normal 0 0 1
outer loop
vertex 147.036965111957 -22.519159185509164 1
vertex 59.593804855451964 -22.358704981537297 1
vertex 60.029793081511905 -22.519159185509164 1
endloop
endfacet
facet normal 0 0 1
outer loop
vertex 146.98844389096803 -22.358704981537297 1
vertex 146.9608597381418 -22.267487299999974 1
vertex 59.13827249999986 -22.267487299999974 1
endloop
endfacet
facet normal 0 0 1
outer loop
vertex 146.98844389096803 -22.358704981537297 1
vertex 59.13827249999986 -22.267487299999974 1
vertex 59.593804855451964 -22.358704981537297 1
endloop
endfacet
facet normal 0 0 1
outer loop
vertex 146.9608597381418 -22.267487299999974 1
vertex 120.3094384999999 65.8657561000003 1
vertex 120.1311171053473 66.31890352854064 1
endloop
endfacet
facet normal 0 0 1
outer loop
vertex 146.9608597381418 -22.267487299999974 1
vertex 120.1311171053473 66.31890352854064 1
vertex 119.8818308586088 66.73722873598378 1
endloop
endfacet
facet normal 0 0 1
outer loop
vertex 146.9608597381418 -22.267487299999974 1
vertex 119.8818308586088 66.73722873598378 1
vertex 119.568148914654 67.109711285954 1
endloop
endfacet
facet normal 0 0 1
outer loop
vertex 146.9608597381418 -22.267487299999974 1
vertex 119.568148914654 67.109711285954 1
vertex 119.19833643064777 67.42653669318695 1
endloop
endfacet
facet normal 0 0 1
outer loop
vertex 146.9608597381418 -22.267487299999974 1
vertex 119.19833643064777 67.42653669318695 1
vertex 118.78213753869697 67.67935697388968 1
endloop
endfacet
facet normal 0 0 1
outer loop
vertex 146.9608597381418 -22.267487299999974 1
vertex 118.78213753869697 67.67935697388968 1
vertex 118.33051859921915 67.86151060547607 1
endloop
endfacet
facet normal 0 0 1
outer loop
vertex 146.9608597381418 -22.267487299999974 1
vertex 118.33051859921915 67.86151060547607 1
vertex 117.85537924999994 67.96819805000001 1
endloop
endfacet
facet normal 0 0 1
outer loop
vertex 146.9608597381418 -22.267487299999974 1
vertex 117.85537924999994 67.96819805000001 1
vertex 101.45867949999993 70.27260450000001 1
endloop
endfacet
facet normal 0 0 1
outer loop
vertex 146.9608597381418 -22.267487299999974 1
vertex 101.45867949999993 70.27260450000001 1
vertex -12.675954131749334 70.27260450000001 1
endloop
endfacet
facet normal 0 0 1
outer loop
vertex 146.9608597381418 -22.267487299999974 1
vertex -12.675954131749334 70.27260450000001 1
vertex -12.888632574131108 70.03543606202335 1
endloop
endfacet
facet normal 0 0 1
outer loop
vertex 146.9608597381418 -22.267487299999974 1
vertex -12.888632574131108 70.03543606202335 1
vertex -13.150739948512225 69.62521653391684 1
endloop
endfacet
facet normal 0 0 1
outer loop
vertex 146.9608597381418 -22.267487299999974 1
vertex -13.150739948512225 69.62521653391684 1
vertex -13.343050173103421 69.1780061645575 1
endloop
endfacet
facet normal 0 0 1
outer loop
vertex 146.9608597381418 -22.267487299999974 1
vertex -13.343050173103421 69.1780061645575 1
vertex -13.460499498813448 68.7055805166137 1
endloop
endfacet
facet normal 0 0 1
outer loop
vertex 146.9608597381418 -22.267487299999974 1
vertex -13.460499498813448 68.7055805166137 1
vertex -13.499995350000006 68.22037909999997 1
endloop
endfacet
facet normal 0 0 1
outer loop
vertex 146.9608597381418 -22.267487299999974 1
vertex -13.499995350000006 68.22037909999997 1
vertex -13.499999900000006 -10.840328099999923 1
endloop
endfacet
facet normal 0 0 1
outer loop
vertex 146.9608597381418 -22.267487299999974 1
vertex -13.499999900000006 -10.840328099999923 1
vertex -13.461107550702067 -11.321795739899613 1
endloop
endfacet
facet normal 0 0 1
outer loop
vertex 146.9608597381418 -22.267487299999974 1
vertex -13.461107550702067 -11.321795739899613 1
vertex -13.34545416157539 -11.7907804911343 1
endloop
endfacet
facet normal 0 0 1
outer loop
vertex 146.9608597381418 -22.267487299999974 1
vertex -13.34545416157539 -11.7907804911343 1
vertex -13.156033063364646 -12.235125009340265 1
endloop
endfacet
facet normal 0 0 1
outer loop
vertex 146.9608597381418 -22.267487299999974 1
vertex -13.156033063364646 -12.235125009340265 1
vertex -12.897754943388904 -12.643309791085983 1
endloop
endfacet
facet normal 0 0 1
outer loop
vertex 146.9608597381418 -22.267487299999974 1
vertex -12.897754943388904 -12.643309791085983 1
vertex -12.577315587389691 -13.004752763674858 1
endloop
endfacet
facet normal 0 0 1
outer loop
vertex 146.9608597381418 -22.267487299999974 1
vertex -12.577315587389691 -13.004752763674858 1
vertex -12.203022293217657 -13.310083622326545 1
endloop
endfacet
facet normal 0 0 1
outer loop
vertex 146.9608597381418 -22.267487299999974 1
vertex -12.203022293217657 -13.310083622326545 1
vertex -11.784578506532696 -13.551386752624907 1
endloop
endfacet
facet normal 0 0 1
outer loop
vertex 146.9608597381418 -22.267487299999974 1
vertex -11.784578506532696 -13.551386752624907 1
vertex -11.332832261774428 -13.722406440538194 1
endloop
endfacet
facet normal 0 0 1
outer loop
vertex 146.9608597381418 -22.267487299999974 1
vertex -11.332832261774428 -13.722406440538194 1
vertex -10.859494950000084 -13.818709049999981 1
endloop
endfacet
facet normal 0 0 1
outer loop
vertex 146.9608597381418 -22.267487299999974 1
vertex -10.859494950000084 -13.818709049999981 1
vertex 59.13827249999986 -22.267487299999974 1
endloop
endfacet
facet normal 0 0 1
outer loop
vertex 101.45867949999993 70.27260450000001 1
vertex 101.11940974205419 70.3404307802041 1
vertex -12.61513158828858 70.3404307802041 1
endloop
endfacet
facet normal 0 0 1
outer loop
vertex 101.45867949999993 70.27260450000001 1
vertex -12.61513158828858 70.3404307802041 1
vertex -12.675954131749334 70.27260450000001 1
endloop
endfacet
facet normal 0 0 1
outer loop
vertex 101.11940974205419 70.3404307802041 1
vertex 100.79021027333484 70.44686933017856 1
vertex -12.502697038982074 70.44686933017856 1
endloop
endfacet
facet normal 0 0 1
outer loop
vertex 101.11940974205419 70.3404307802041 1
vertex -12.502697038982074 70.44686933017856 1
vertex -12.563629638170795 70.39786319754455 1
endloop
endfacet
facet normal 0 0 1
outer loop
vertex 101.11940974205419 70.3404307802041 1
vertex -12.563629638170795 70.39786319754455 1
vertex -12.61513158828858 70.3404307802041 1
endloop
endfacet
facet normal 0 0 1
outer loop
vertex 100.79021027333484 70.44686933017856 1
vertex 100.47545474999967 70.59050225000016 1
vertex -12.324108632523695 70.59050225000016 1
endloop
endfacet
facet normal 0 0 1
outer loop
vertex 100.79021027333484 70.44686933017856 1
vertex -12.324108632523695 70.59050225000016 1
vertex -12.502697038982074 70.44686933017856 1
endloop
endfacet
facet normal 0 0 1
outer loop
vertex 100.47545474999967 70.59050225000016 1
vertex 78.97017460000009 81.94541519999996 1
vertex 78.69934493327173 82.07158672384217 1
endloop
endfacet
facet normal 0 0 1
outer loop
vertex 100.47545474999967 70.59050225000016 1
vertex 78.69934493327173 82.07158672384217 1
vertex 78.41731031690969 82.17019629371092 1
endloop
endfacet
facet normal 0 0 1
outer loop
vertex 100.47545474999967 70.59050225000016 1
vertex 78.41731031690969 82.17019629371092 1
vertex 78.1268658385852 82.24026324103232 1
endloop
endfacet
facet normal 0 0 1
outer loop
vertex 100.47545474999967 70.59050225000016 1
vertex 78.1268658385852 82.24026324103232 1
vertex 77.83089230000014 82.28109259999998 1
endloop
endfacet
facet normal 0 0 1
outer loop
vertex 100.47545474999967 70.59050225000016 1
vertex 77.83089230000014 82.28109259999998 1
vertex 51.77165989999974 84.56098230000002 1
endloop
endfacet
facet normal 0 0 1
outer loop
vertex 100.47545474999967 70.59050225000016 1
vertex 51.77165989999974 84.56098230000002 1
vertex 51.53708720680059 84.57227736822189 1
endloop
endfacet
facet normal 0 0 1
outer loop
vertex 100.47545474999967 70.59050225000016 1
vertex 51.53708720680059 84.57227736822189 1
vertex 51.30235495000012 84.56518615 1
endloop
endfacet
facet normal 0 0 1
outer loop
vertex 100.47545474999967 70.59050225000016 1
vertex 51.30235495000012 84.56518615 1
vertex 32.65112950000003 83.2699233 1
endloop
endfacet
facet normal 0 0 1
outer loop
vertex 100.47545474999967 70.59050225000016 1
vertex 32.65112950000003 83.2699233 1
vertex 32.450354820339726 83.24917486408 1
endloop
endfacet
facet normal 0 0 1
outer loop
vertex 100.47545474999967 70.59050225000016 1
vertex 32.450354820339726 83.24917486408 1
vertex 32.251434677831696 83.21496992029897 1
endloop
endfacet
facet normal 0 0 1
outer loop
vertex 100.47545474999967 70.59050225000016 1
vertex 32.251434677831696 83.21496992029897 1
vertex 32.05526475000006 83.16746665000002 1
endloop
endfacet
facet normal 0 0 1
outer loop
vertex 100.47545474999967 70.59050225000016 1
vertex 32.05526475000006 83.16746665000002 1
vertex -11.303710699999968 71.1107182 1
endloop
endfacet
facet normal 0 0 1
outer loop
vertex 100.47545474999967 70.59050225000016 1
vertex -11.303710699999968 71.1107182 1
vertex -11.760598662145497 70.94267750982712 1
endloop
endfacet
facet normal 0 0 1
outer loop
vertex 100.47545474999967 70.59050225000016 1
vertex -11.760598662145497 70.94267750982712 1
vertex -12.184288841217196 70.70295481773657 1
endloop
endfacet
facet normal 0 0 1
outer loop
vertex 100.47545474999967 70.59050225000016 1
vertex -12.184288841217196 70.70295481773657 1
vertex -12.324108632523695 70.59050225000016 1
endloop
endfacet
facet normal -0.9999999999999983 5.7550707310838334e-8 0
outer loop
vertex -13.499999900000006 -10.840328099999923 1
vertex -13.499995350000006 68.22037909999997 1
vertex -13.499995350000006 68.22037909999986 0
endloop
endfacet
facet normal -0.9999999999999983 5.7550707310838334e-8 0
outer loop
vertex -13.499999900000006 -10.840328099999923 1
vertex -13.499995350000006 68.22037909999986 0
vertex -13.499999900000006 -10.840328099999951 0
endloop
endfacet
facet normal -0.9967532781147543 -0.0805164738888351 0
outer loop
vertex -13.461107550702067 -11.321795739899613 1
vertex -13.499999900000006 -10.840328099999923 1
vertex -13.499999900000006 -10.840328099999951 0
endloop
endfacet
facet normal -0.9967532781147543 -0.0805164738888351 0
outer loop
vertex -13.461107550702067 -11.321795739899613 1
vertex -13.499999900000006 -10.840328099999951 0
vertex -13.461107550702067 -11.321795739899644 0
endloop
endfacet
facet normal -0.9709134145513751 -0.23943086986474776 0
outer loop
vertex -13.34545416157539 -11.7907804911343 1
vertex -13.461107550702067 -11.321795739899613 1
vertex -13.461107550702067 -11.321795739899644 0
endloop
endfacet
facet normal -0.9709134145513751 -0.23943086986474776 0
outer loop
vertex -13.34545416157539 -11.7907804911343 1
vertex -13.461107550702067 -11.321795739899644 0
vertex -13.345454161575404 -11.790780491134257 0
endloop
endfacet
facet normal -0.9199020912147642 -0.3921481130627864 0
outer loop
vertex -13.156033063364646 -12.235125009340265 1
vertex -13.34545416157539 -11.7907804911343 1
vertex -13.345454161575404 -11.790780491134257 0
endloop
endfacet
facet normal -0.9199020912147642 -0.3921481130627864 0
outer loop
vertex -13.156033063364646 -12.235125009340265 1
vertex -13.345454161575404 -11.790780491134257 0
vertex -13.15603306336466 -12.23512500934024 0
endloop
endfacet
facet normal -0.8450425715748789 -0.5346990295728202 0
outer loop
vertex -12.897754943388904 -12.643309791085983 1
vertex -13.156033063364646 -12.235125009340265 1
vertex -13.15603306336466 -12.23512500934024 0
endloop
endfacet
facet normal -0.8450425715748789 -0.5346990295728202 0
outer loop
vertex -12.897754943388904 -12.643309791085983 1
vertex -13.15603306336466 -12.23512500934024 0
vertex -12.897754943388875 -12.64330979108602 0
endloop
endfacet
facet normal -0.7482755670798169 -0.6633880280133027 0
outer loop
vertex -12.577315587389691 -13.004752763674858 1
vertex -12.897754943388904 -12.643309791085983 1
vertex -12.897754943388875 -12.64330979108602 0
endloop
endfacet
facet normal -0.7482755670798169 -0.6633880280133027 0
outer loop
vertex -12.577315587389691 -13.004752763674858 1
vertex -12.897754943388875 -12.64330979108602 0
vertex -12.577315587389691 -13.004752763674862 0
endloop
endfacet
facet normal -0.6321097344017496 -0.7748788832292114 0
outer loop
vertex -12.203022293217657 -13.310083622326545 1
vertex -12.577315587389691 -13.004752763674858 1
vertex -12.577315587389691 -13.004752763674862 0
endloop
endfacet
facet normal -0.6321097344017496 -0.7748788832292114 0
outer loop
vertex -12.203022293217657 -13.310083622326545 1
vertex -12.577315587389691 -13.004752763674862 0
vertex -12.203022293217671 -13.310083622326541 0
endloop
endfacet
facet normal -0.4995566392365323 -0.8662812269665673 0
outer loop
vertex -11.784578506532696 -13.551386752624907 1
vertex -12.203022293217657 -13.310083622326545 1
vertex -12.203022293217671 -13.310083622326541 0
endloop
endfacet
facet normal -0.4995566392365323 -0.8662812269665673 0
outer loop
vertex -11.784578506532696 -13.551386752624907 1
vertex -12.203022293217671 -13.310083622326541 0
vertex -11.784578506532696 -13.551386752624921 0
endloop
endfacet
facet normal -0.3540526823318953 -0.9352254798355262 0
outer loop
vertex -11.332832261774428 -13.722406440538194 1
vertex -11.784578506532696 -13.551386752624907 1
vertex -11.784578506532696 -13.551386752624921 0
endloop
endfacet
facet normal -0.3540526823318953 -0.9352254798355262 0
outer loop
vertex -11.332832261774428 -13.722406440538194 1
vertex -11.784578506532696 -13.551386752624921 0
vertex -11.332832261774499 -13.72240644053818 0
endloop
endfacet
facet normal -0.19937001178960048 -0.9799242819723444 0
outer loop
vertex -10.859494950000084 -13.818709049999981 1
vertex -11.332832261774428 -13.722406440538194 1
vertex -11.332832261774499 -13.72240644053818 0
endloop
endfacet
facet normal -0.19937001178960048 -0.9799242819723444 0
outer loop
vertex -10.859494950000084 -13.818709049999981 1
vertex -11.332832261774499 -13.72240644053818 0
vertex -10.859494950000055 -13.818709049999988 0
endloop
endfacet
facet normal -0.11983095011018106 -0.9927943107188374 0
outer loop
vertex 59.13827249999986 -22.267487299999974 1
vertex -10.859494950000084 -13.818709049999981 1
vertex -10.859494950000055 -13.818709049999988 0
endloop
endfacet
facet normal -0.11983095011018106 -0.9927943107188374 0
outer loop
vertex 59.13827249999986 -22.267487299999974 1
vertex -10.859494950000055 -13.818709049999988 0
vertex 59.1382725 -22.2674873 0
endloop
endfacet
facet normal -0.19634630356651786 -0.9805346139100674 0
outer loop
vertex 59.593804855451964 -22.358704981537297 1
vertex 59.13827249999986 -22.267487299999974 1
vertex 59.1382725 -22.2674873 0
endloop
endfacet
facet normal -0.19634630356651786 -0.9805346139100674 0
outer loop
vertex 59.593804855451964 -22.358704981537297 1
vertex 59.1382725 -22.2674873 0
vertex 59.59380485545196 -22.35870498153729 0
endloop
endfacet
facet normal -0.34537738921545663 -0.938463882639452 0
outer loop
vertex 60.029793081511905 -22.519159185509164 1
vertex 59.593804855451964 -22.358704981537297 1
vertex 59.59380485545196 -22.35870498153729 0
endloop
endfacet
facet normal -0.34537738921545663 -0.938463882639452 0
outer loop
vertex 60.029793081511905 -22.519159185509164 1
vertex 59.59380485545196 -22.35870498153729 0
vertex 60.02979308151191 -22.519159185509164 0
endloop
endfacet
facet normal -0.48612920386976216 -0.8738869475767167 0
outer loop
vertex 60.435780383846165 -22.745003368915576 1
vertex 60.029793081511905 -22.519159185509164 1
vertex 60.02979308151191 -22.519159185509164 0
endloop
endfacet
facet normal -0.48612920386976216 -0.8738869475767167 0
outer loop
vertex 60.435780383846165 -22.745003368915576 1
vertex 60.02979308151191 -22.519159185509164 0
vertex 60.435780383846144 -22.74500336891556 0
endloop
endfacet
facet normal -0.6152230306721438 -0.7883531077699781 0
outer loop
vertex 60.80203067788925 -23.030821505059077 1
vertex 60.435780383846165 -22.745003368915576 1
vertex 60.435780383846144 -22.74500336891556 0
endloop
endfacet
facet normal -0.6152230306721438 -0.7883531077699781 0
outer loop
vertex 60.80203067788925 -23.030821505059077 1
vertex 60.435780383846144 -22.74500336891556 0
vertex 60.802030677889235 -23.03082150505906 0
endloop
endfacet
facet normal -0.7295630377889768 -0.6839135719461342 0
outer loop
vertex 61.11976082235941 -23.369759316655887 1
vertex 60.80203067788925 -23.030821505059077 1
vertex 60.802030677889235 -23.03082150505906 0
endloop
endfacet
facet normal -0.7295630377889768 -0.6839135719461342 0
outer loop
vertex 61.11976082235941 -23.369759316655887 1
vertex 60.802030677889235 -23.03082150505906 0
vertex 61.119760822359396 -23.369759316655873 0
endloop
endfacet
facet normal -0.8264072084820003 -0.5630729311279203 0
outer loop
vertex 61.38135125000008 -23.753688650000132 1
vertex 61.11976082235941 -23.369759316655887 1
vertex 61.119760822359396 -23.369759316655873 0
endloop
endfacet
facet normal -0.8264072084820003 -0.5630729311279203 0
outer loop
vertex 61.38135125000008 -23.753688650000132 1
vertex 61.119760822359396 -23.369759316655873 0
vertex 61.38135125000007 -23.753688650000136 0
endloop
endfacet
facet normal -0.8675244378805934 -0.49739456136950355 0
outer loop
vertex 91.99326120000016 -77.14506450000027 1
vertex 61.38135125000008 -23.753688650000132 1
vertex 61.38135125000007 -23.753688650000136 0
endloop
endfacet
facet normal -0.8675244378805934 -0.49739456136950355 0
outer loop
vertex 91.99326120000016 -77.14506450000027 1
vertex 61.38135125000007 -23.753688650000136 0
vertex 91.99326120000012 -77.1450645000002 0
endloop
endfacet
facet normal -0.8271983751926474 -0.5619099999809973 0
outer loop
vertex 92.24958813188415 -77.52240824113271 1
vertex 91.99326120000016 -77.14506450000027 1
vertex 91.99326120000012 -77.1450645000002 0
endloop
endfacet
facet normal -0.8271983751926474 -0.5619099999809973 0
outer loop
vertex 92.24958813188415 -77.52240824113271 1
vertex 91.99326120000012 -77.1450645000002 0
vertex 92.24958813188422 -77.5224082411328 0
endloop
endfacet
facet normal -0.7324378034310294 -0.6808339475269493 0
outer loop
vertex 92.56016337635103 -77.85652355762605 1
vertex 92.24958813188415 -77.52240824113271 1
vertex 92.24958813188422 -77.5224082411328 0
endloop
endfacet
facet normal -0.7324378034310294 -0.6808339475269493 0
outer loop
vertex 92.56016337635103 -77.85652355762605 1
vertex 92.24958813188422 -77.5224082411328 0
vertex 92.56016337635097 -77.85652355762598 0
endloop
endfacet
facet normal -0.6207449684429149 -0.7840125535683753 0
outer loop
vertex 92.91780548772621 -78.13968808111359 1
vertex 92.56016337635103 -77.85652355762605 1
vertex 92.56016337635097 -77.85652355762598 0
endloop
endfacet
facet normal -0.6207449684429149 -0.7840125535683753 0
outer loop
vertex 92.91780548772621 -78.13968808111359 1
vertex 92.56016337635097 -77.85652355762598 0
vertex 92.91780548772634 -78.13968808111368 0
endloop
endfacet
facet normal -0.49469981819240194 -0.8690639158775403 0
outer loop
vertex 93.3142453819346 -78.36535473233 1
vertex 92.91780548772621 -78.13968808111359 1
vertex 92.91780548772634 -78.13968808111368 0
endloop
endfacet
facet normal -0.49469981819240194 -0.8690639158775403 0
outer loop
vertex 93.3142453819346 -78.36535473233 1
vertex 92.91780548772634 -78.13968808111368 0
vertex 93.3142453819346 -78.36535473233 0
endloop
endfacet
facet normal -0.35721665698418537 -0.9340215521994356 0
outer loop
vertex 93.74031692693495 -78.52830584687625 1
vertex 93.3142453819346 -78.36535473233 1
vertex 93.3142453819346 -78.36535473233 0
endloop
endfacet
facet normal -0.35721665698418537 -0.9340215521994356 0
outer loop
vertex 93.74031692693495 -78.52830584687625 1
vertex 93.3142453819346 -78.36535473233 0
vertex 93.74031692693491 -78.52830584687624 0
endloop
endfacet
facet normal -0.2114742486798634 -0.9773835696108705 0
outer loop
vertex 94.1861688739072 -78.62477381343513 1
vertex 93.74031692693495 -78.52830584687625 1
vertex 93.74031692693491 -78.52830584687624 0
endloop
endfacet
facet normal -0.2114742486798634 -0.9773835696108705 0
outer loop
vertex 94.1861688739072 -78.62477381343513 1
vertex 93.74031692693491 -78.52830584687624 0
vertex 94.18616887390729 -78.62477381343514 0
endloop
endfacet
facet normal -0.06084232013579085 -0.9981473899582637 0
outer loop
vertex 94.64149262909918 -78.65252818514168 1
vertex 94.1861688739072 -78.62477381343513 1
vertex 94.18616887390729 -78.62477381343514 0
endloop
endfacet
facet normal -0.06084232013579085 -0.9981473899582637 0
outer loop
vertex 94.64149262909918 -78.65252818514168 1
vertex 94.18616887390729 -78.62477381343514 0
vertex 94.64149262909913 -78.65252818514168 0
endloop
endfacet
facet normal 0.09119635063623834 -0.9958329305815472 0
outer loop
vertex 95.09576060000022 -78.61092724999996 1
vertex 94.64149262909918 -78.65252818514168 1
vertex 94.64149262909913 -78.65252818514168 0
endloop
endfacet
facet normal 0.09119635063623834 -0.9958329305815472 0
outer loop
vertex 95.09576060000022 -78.61092724999996 1
vertex 94.64149262909913 -78.65252818514168 0
vertex 95.0957606 -78.61092724999997 0
endloop
endfacet
facet normal 0.16664092631708627 -0.9860176477508826 0
outer loop
vertex 133.60069160000012 -72.10343989999997 1
vertex 95.09576060000022 -78.61092724999996 1
vertex 95.0957606 -78.61092724999997 0
endloop
endfacet
facet normal 0.16664092631708627 -0.9860176477508826 0
outer loop
vertex 133.60069160000012 -72.10343989999997 1
vertex 95.0957606 -78.61092724999997 0
vertex 133.6006916 -72.10343990000001 0
endloop
endfacet
facet normal 0.20210877138339375 -0.9793630810531379 0
outer loop
vertex 133.81272713336898 -72.05968264391399 1
vertex 133.60069160000012 -72.10343989999997 1
vertex 133.6006916 -72.10343990000001 0
endloop
endfacet
facet normal 0.20210877138339375 -0.9793630810531379 0
outer loop
vertex 133.81272713336898 -72.05968264391399 1
vertex 133.6006916 -72.10343990000001 0
vertex 133.8127271333685 -72.0596826439141 0
endloop
endfacet
facet normal 0.27221469675620874 -0.9622365399785675 0
outer loop
vertex 134.02105547430395 -72.00074699368956 1
vertex 133.81272713336898 -72.05968264391399 1
vertex 133.8127271333685 -72.0596826439141 0
endloop
endfacet
facet normal 0.27221469675620874 -0.9622365399785675 0
outer loop
vertex 134.02105547430395 -72.00074699368956 1
vertex 133.8127271333685 -72.0596826439141 0
vertex 134.02105547430426 -72.00074699368945 0
endloop
endfacet
facet normal 0.3409033741012595 -0.9400983403486982 0
outer loop
vertex 134.2245907999995 -71.92693995000019 1
vertex 134.02105547430395 -72.00074699368956 1
vertex 134.02105547430426 -72.00074699368945 0
endloop
endfacet
facet normal 0.3409033741012595 -0.9400983403486982 0
outer loop
vertex 134.2245907999995 -71.92693995000019 1
vertex 134.02105547430426 -72.00074699368945 0
vertex 134.22459079999967 -71.92693995000015 0
endloop
endfacet
facet normal 0.3746066811754497 -0.9271838191096279 0
outer loop
vertex 156.41516589999995 -62.96136320000002 1
vertex 134.2245907999995 -71.92693995000019 1
vertex 134.22459079999967 -71.92693995000015 0
endloop
endfacet
facet normal 0.3746066811754497 -0.9271838191096279 0
outer loop
vertex 156.41516589999995 -62.96136320000002 1
vertex 134.22459079999967 -71.92693995000015 0
vertex 156.41516589999998 -62.96136320000002 0
endloop
endfacet
facet normal 0.44950949086845243 -0.8932755552567107 0
outer loop
vertex 156.85549194535267 -62.73978461173816 1
vertex 156.41516589999995 -62.96136320000002 1
vertex 156.41516589999998 -62.96136320000002 0
endloop
endfacet
facet normal 0.44950949086845243 -0.8932755552567107 0
outer loop
vertex 156.85549194535267 -62.73978461173816 1
vertex 156.41516589999998 -62.96136320000002 0
vertex 156.85549194535258 -62.7397846117382 0
endloop
endfacet
facet normal 0.5897246132767856 -0.8076044084176026 0
outer loop
vertex 157.25359111741457 -62.44908674302542 1
vertex 156.85549194535267 -62.73978461173816 1
vertex 156.85549194535258 -62.7397846117382 0
endloop
endfacet
facet normal 0.5897246132767856 -0.8076044084176026 0
outer loop
vertex 157.25359111741457 -62.44908674302542 1
vertex 156.85549194535258 -62.7397846117382 0
vertex 157.2535911174146 -62.44908674302536 0
endloop
endfacet
facet normal 0.7140148434828473 -0.7001305615998813 0
outer loop
vertex 157.59871231041808 -62.09712145523409 1
vertex 157.25359111741457 -62.44908674302542 1
vertex 157.2535911174146 -62.44908674302536 0
endloop
endfacet
facet normal 0.7140148434828473 -0.7001305615998813 0
outer loop
vertex 157.59871231041808 -62.09712145523409 1
vertex 157.2535911174146 -62.44908674302536 0
vertex 157.59871231041802 -62.09712145523412 0
endloop
endfacet
facet normal 0.8190276089351906 -0.5737541074379376 0
outer loop
vertex 157.88153770458075 -61.693391349733716 1
vertex 157.59871231041808 -62.09712145523409 1
vertex 157.59871231041802 -62.09712145523412 0
endloop
endfacet
facet normal 0.8190276089351906 -0.5737541074379376 0
outer loop
vertex 157.88153770458075 -61.693391349733716 1
vertex 157.59871231041802 -62.09712145523412 0
vertex 157.88153770458075 -61.69339134973366 0
endloop
endfacet
facet normal 0.9019277026304463 -0.4318870445241038 0
outer loop
vertex 158.09443138502263 -61.2487966101136 1
vertex 157.88153770458075 -61.693391349733716 1
vertex 157.88153770458075 -61.69339134973366 0
endloop
endfacet
facet normal 0.9019277026304463 -0.4318870445241038 0
outer loop
vertex 158.09443138502263 -61.2487966101136 1
vertex 157.88153770458075 -61.69339134973366 0
vertex 158.09443138502274 -61.248796610113374 0
endloop
endfacet
facet normal 0.9604769307147356 -0.27835959757982265 0
outer loop
vertex 158.23164550146012 -60.7753407115117 1
vertex 158.09443138502263 -61.2487966101136 1
vertex 158.09443138502274 -61.248796610113374 0
endloop
endfacet
facet normal 0.9604769307147356 -0.27835959757982265 0
outer loop
vertex 158.23164550146012 -60.7753407115117 1
vertex 158.09443138502274 -61.248796610113374 0
vertex 158.2316455014601 -60.775340711511916 0
endloop
endfacet
facet normal 0.9930945407834266 -0.11731680640963289 0
outer loop
vertex 158.28947545262662 -60.28580634252559 1
vertex 158.23164550146012 -60.7753407115117 1
vertex 158.2316455014601 -60.775340711511916 0
endloop
endfacet
facet normal 0.9930945407834266 -0.11731680640963289 0
outer loop
vertex 158.28947545262662 -60.28580634252559 1
vertex 158.2316455014601 -60.775340711511916 0
vertex 158.2894754526266 -60.28580634252574 0
endloop
endfacet
facet normal 0.9988999001239418 0.0468933847400592 0
outer loop
vertex 158.26635990565137 -59.79341028937508 1
vertex 158.28947545262662 -60.28580634252559 1
vertex 158.2894754526266 -60.28580634252574 0
endloop
endfacet
facet normal 0.9988999001239418 0.0468933847400592 0
outer loop
vertex 158.26635990565137 -59.79341028937508 1
vertex 158.2894754526266 -60.28580634252574 0
vertex 158.26635990565134 -59.793410289375025 0
endloop
endfacet
facet normal 0.977736271644473 0.20983751597549347 0
outer loop
vertex 158.1629229499999 -59.31144659999974 1
vertex 158.26635990565137 -59.79341028937508 1
vertex 158.26635990565134 -59.793410289375025 0
endloop
endfacet
facet normal 0.977736271644473 0.20983751597549347 0
outer loop
vertex 158.1629229499999 -59.31144659999974 1
vertex 158.26635990565134 -59.793410289375025 0
vertex 158.16292294999985 -59.3114465999995 0
endloop
endfacet
facet normal 0 0 -1
outer loop
vertex 120.3094384999999 65.8657561000003 1
vertex 146.9608597381418 -22.267487299999974 1
vertex 146.98844389096803 -22.358704981537297 1
endloop
endfacet
facet normal 0 0 -1
outer loop
vertex 120.3094384999999 65.8657561000003 1
vertex 146.98844389096803 -22.358704981537297 1
vertex 147.036965111957 -22.519159185509164 1
endloop
endfacet
facet normal 0 0 -1
outer loop
vertex 120.3094384999999 65.8657561000003 1
vertex 147.036965111957 -22.519159185509164 1
vertex 147.10526020962894 -22.745003368915576 1
endloop
endfacet
facet normal 0 0 -1
outer loop
vertex 120.3094384999999 65.8657561000003 1
vertex 147.10526020962894 -22.745003368915576 1
vertex 147.1916913819085 -23.030821505059077 1
endloop
endfacet
facet normal 0 0 -1
outer loop
vertex 120.3094384999999 65.8657561000003 1
vertex 147.1916913819085 -23.030821505059077 1
vertex 147.29418590091083 -23.369759316655887 1
endloop
endfacet
facet normal 0 0 -1
outer loop
vertex 120.3094384999999 65.8657561000003 1
vertex 147.29418590091083 -23.369759316655887 1
vertex 147.41028581955558 -23.753688650000132 1
endloop
endfacet
facet normal 0 0 -1
outer loop
vertex 120.3094384999999 65.8657561000003 1
vertex 147.41028581955558 -23.753688650000132 1
vertex 158.1629229499999 -59.31144659999974 1
endloop
endfacet
facet normal 0 0 -1
outer loop
vertex 120.3094384999999 65.8657561000003 1
vertex 158.1629229499999 -59.31144659999974 1
vertex 158.16292294999985 -59.3114465999995 0
endloop
endfacet
facet normal 0 0 -1
outer loop
vertex 120.3094384999999 65.8657561000003 1
vertex 158.16292294999985 -59.3114465999995 0
vertex 147.4102858195556 -23.753688650000136 0
endloop
endfacet
facet normal 0 0 -1
outer loop
vertex 120.3094384999999 65.8657561000003 1
vertex 147.4102858195556 -23.753688650000136 0
vertex 147.29418590091086 -23.369759316655873 0
endloop
endfacet
facet normal 0 0 -1
outer loop
vertex 120.3094384999999 65.8657561000003 1
vertex 147.29418590091086 -23.369759316655873 0
vertex 147.1916913819085 -23.03082150505906 0
endloop
endfacet
facet normal 0 0 -1
outer loop
vertex 120.3094384999999 65.8657561000003 1
vertex 147.1916913819085 -23.03082150505906 0
vertex 147.10526020962897 -22.74500336891556 0
endloop
endfacet
facet normal 0 0 -1
outer loop
vertex 120.3094384999999 65.8657561000003 1
vertex 147.10526020962897 -22.74500336891556 0
vertex 147.03696511195702 -22.519159185509164 0
endloop
endfacet
facet normal 0 0 -1
outer loop
vertex 120.3094384999999 65.8657561000003 1
vertex 147.03696511195702 -22.519159185509164 0
vertex 146.98844389096806 -22.35870498153729 0
endloop
endfacet
facet normal 0 0 -1
outer loop
vertex 120.3094384999999 65.8657561000003 1
vertex 146.98844389096806 -22.35870498153729 0
vertex 146.96085973814183 -22.2674873 0
endloop
endfacet
facet normal 0 0 -1
outer loop
vertex 120.3094384999999 65.8657561000003 1
vertex 146.96085973814183 -22.2674873 0
vertex 120.30943849999991 65.86575610000025 0
endloop
endfacet
facet normal 0.9305422448227598 0.36618455811273504 0
outer loop
vertex 120.1311171053473 66.31890352854064 1
vertex 120.3094384999999 65.8657561000003 1
vertex 120.30943849999991 65.86575610000025 0
endloop
endfacet
facet normal 0.9305422448227598 0.36618455811273504 0
outer loop
vertex 120.1311171053473 66.31890352854064 1
vertex 120.30943849999991 65.86575610000025 0
vertex 120.13111710534734 66.31890352854052 0
endloop
endfacet
facet normal 0.8590372228698573 0.5119131271261204 0
outer loop
vertex 119.8818308586088 66.73722873598378 1
vertex 120.1311171053473 66.31890352854064 1
vertex 120.13111710534734 66.31890352854052 0
endloop
endfacet
facet normal 0.8590372228698573 0.5119131271261204 0
outer loop
vertex 119.8818308586088 66.73722873598378 1
vertex 120.13111710534734 66.31890352854052 0
vertex 119.88183085860865 66.73722873598396 0
endloop
endfacet
facet normal 0.7648986233688074 0.6441506780004997 0
outer loop
vertex 119.568148914654 67.109711285954 1
vertex 119.8818308586088 66.73722873598378 1
vertex 119.88183085860865 66.73722873598396 0
endloop
endfacet
facet normal 0.7648986233688074 0.6441506780004997 0
outer loop
vertex 119.568148914654 67.109711285954 1
vertex 119.88183085860865 66.73722873598396 0
vertex 119.56814891465393 67.10971128595409 0
endloop
endfacet
facet normal 0.6506058280053971 0.7594156020028899 0
outer loop
vertex 119.19833643064777 67.42653669318695 1
vertex 119.568148914654 67.109711285954 1
vertex 119.56814891465393 67.10971128595409 0
endloop
endfacet
facet normal 0.6506058280053971 0.7594156020028899 0
outer loop
vertex 119.19833643064777 67.42653669318695 1
vertex 119.56814891465393 67.10971128595409 0
vertex 119.19833643064781 67.42653669318693 0
endloop
endfacet
facet normal 0.5191703200180902 0.8546708014272596 0
outer loop
vertex 118.78213753869697 67.67935697388968 1
vertex 119.19833643064777 67.42653669318695 1
vertex 119.19833643064781 67.42653669318693 0
endloop
endfacet
facet normal 0.5191703200180902 0.8546708014272596 0
outer loop
vertex 118.78213753869697 67.67935697388968 1
vertex 119.19833643064781 67.42653669318693 0
vertex 118.78213753869704 67.67935697388964 0
endloop
endfacet
facet normal 0.37405527333646715 0.9274064117145088 0
outer loop
vertex 118.33051859921915 67.86151060547607 1
vertex 118.78213753869697 67.67935697388968 1
vertex 118.78213753869704 67.67935697388964 0
endloop
endfacet
facet normal 0.37405527333646715 0.9274064117145088 0
outer loop
vertex 118.33051859921915 67.86151060547607 1
vertex 118.78213753869704 67.67935697388964 0
vertex 118.33051859921908 67.8615106054761 0
endloop
endfacet
facet normal 0.2190843019455148 0.9757059334866457 0
outer loop
vertex 117.85537924999994 67.96819805000001 1
vertex 118.33051859921915 67.86151060547607 1
vertex 118.33051859921908 67.8615106054761 0
endloop
endfacet
facet normal 0.2190843019455148 0.9757059334866457 0
outer loop
vertex 117.85537924999994 67.96819805000001 1
vertex 118.33051859921908 67.8615106054761 0
vertex 117.85537925000027 67.96819804999994 0
endloop
endfacet
facet normal 0.13917313535594633 0.9902680639075438 0
outer loop
vertex 101.45867949999993 70.27260450000001 1
vertex 117.85537924999994 67.96819805000001 1
vertex 117.85537925000027 67.96819804999994 0
endloop
endfacet
facet normal 0.13917313535594633 0.9902680639075438 0
outer loop
vertex 101.45867949999993 70.27260450000001 1
vertex 117.85537925000027 67.96819804999994 0
vertex 101.45867950000044 70.27260449999991 0
endloop
endfacet
facet normal 0.19603923166458484 0.9805960532494302 0
outer loop
vertex 101.11940974205419 70.3404307802041 1
vertex 101.45867949999993 70.27260450000001 1
vertex 101.45867950000044 70.27260449999991 0
endloop
endfacet
facet normal 0.19603923166458484 0.9805960532494302 0
outer loop
vertex 101.11940974205419 70.3404307802041 1
vertex 101.45867950000044 70.27260449999991 0
vertex 101.1194097420542 70.3404307802041 0
endloop
endfacet
facet normal 0.3076445561563477 0.9515013542120494 0
outer loop
vertex 100.79021027333484 70.44686933017856 1
vertex 101.11940974205419 70.3404307802041 1
vertex 101.1194097420542 70.3404307802041 0
endloop
endfacet
facet normal 0.3076445561563477 0.9515013542120494 0
outer loop
vertex 100.79021027333484 70.44686933017856 1
vertex 101.1194097420542 70.3404307802041 0
vertex 100.7902102733346 70.44686933017866 0
endloop
endfacet
facet normal 0.41514926573529587 0.9097533111560764 0
outer loop
vertex 100.47545474999967 70.59050225000016 1
vertex 100.79021027333484 70.44686933017856 1
vertex 100.7902102733346 70.44686933017866 0
endloop
endfacet
facet normal 0.41514926573529587 0.9097533111560764 0
outer loop
vertex 100.47545474999967 70.59050225000016 1
vertex 100.7902102733346 70.44686933017866 0
vertex 100.47545474999967 70.59050225000016 0
endloop
endfacet
facet normal 0.46691633207866645 0.8843014977021155 0
outer loop
vertex 78.97017460000009 81.94541519999996 1
vertex 100.47545474999967 70.59050225000016 1
vertex 100.47545474999967 70.59050225000016 0
endloop
endfacet
facet normal 0.46691633207866645 0.8843014977021155 0
outer loop
vertex 78.97017460000009 81.94541519999996 1
vertex 100.47545474999967 70.59050225000016 0
vertex 78.97017459999967 81.94541520000016 0
endloop
endfacet
facet normal 0.42229266577803004 0.9064595437360042 0
outer loop
vertex 78.69934493327173 82.07158672384217 1
vertex 78.97017460000009 81.94541519999996 1
vertex 78.97017459999967 81.94541520000016 0
endloop
endfacet
facet normal 0.42229266577803004 0.9064595437360042 0
outer loop
vertex 78.69934493327173 82.07158672384217 1
vertex 78.97017459999967 81.94541520000016 0
vertex 78.69934493327176 82.07158672384216 0
endloop
endfacet
facet normal 0.33004464406475564 0.9439653240051612 0
outer loop
vertex 78.41731031690969 82.17019629371092 1
vertex 78.69934493327173 82.07158672384217 1
vertex 78.69934493327176 82.07158672384216 0
endloop
endfacet
facet normal 0.33004464406475564 0.9439653240051612 0
outer loop
vertex 78.41731031690969 82.17019629371092 1
vertex 78.69934493327176 82.07158672384216 0
vertex 78.41731031690964 82.17019629371093 0
endloop
endfacet
facet normal 0.23451294555070507 0.9721129967082696 0
outer loop
vertex 78.1268658385852 82.24026324103232 1
vertex 78.41731031690969 82.17019629371092 1
vertex 78.41731031690964 82.17019629371093 0
endloop
endfacet
facet normal 0.23451294555070507 0.9721129967082696 0
outer loop
vertex 78.1268658385852 82.24026324103232 1
vertex 78.41731031690964 82.17019629371093 0
vertex 78.12686583858509 82.24026324103235 0
endloop
endfacet
facet normal 0.13665520766194558 0.9906186724561932 0
outer loop
vertex 77.83089230000014 82.28109259999998 1
vertex 78.1268658385852 82.24026324103232 1
vertex 78.12686583858509 82.24026324103235 0
endloop
endfacet
facet normal 0.13665520766194558 0.9906186724561932 0
outer loop
vertex 77.83089230000014 82.28109259999998 1
vertex 78.12686583858509 82.24026324103235 0
vertex 77.83089230000009 82.28109260000001 0
endloop
endfacet
facet normal 0.08715582942819823 0.9961946905081771 0
outer loop
vertex 51.77165989999974 84.56098230000002 1
vertex 77.83089230000014 82.28109259999998 1
vertex 77.83089230000009 82.28109260000001 0
endloop
endfacet
facet normal 0.08715582942819823 0.9961946905081771 0
outer loop
vertex 51.77165989999974 84.56098230000002 1
vertex 77.83089230000009 82.28109260000001 0
vertex 51.7716599 84.56098229999999 0
endloop
endfacet
facet normal 0.04809595061044545 0.9988427201190775 0
outer loop
vertex 51.53708720680059 84.57227736822189 1
vertex 51.77165989999974 84.56098230000002 1
vertex 51.7716599 84.56098229999999 0
endloop
endfacet
facet normal 0.04809595061044545 0.9988427201190775 0
outer loop
vertex 51.53708720680059 84.57227736822189 1
vertex 51.7716599 84.56098229999999 0
vertex 51.537087206800486 84.57227736822188 0
endloop
endfacet
facet normal -0.030196039913320753 0.9995439956167778 0
outer loop
vertex 51.30235495000012 84.56518615 1
vertex 51.53708720680059 84.57227736822189 1
vertex 51.537087206800486 84.57227736822188 0
endloop
endfacet
facet normal -0.030196039913320753 0.9995439956167778 0
outer loop
vertex 51.30235495000012 84.56518615 1
vertex 51.537087206800486 84.57227736822188 0
vertex 51.30235494999949 84.56518614999997 0
endloop
endfacet
facet normal -0.06927966722791723 0.9975972773162471 0
outer loop
vertex 32.65112950000003 83.2699233 1
vertex 51.30235495000012 84.56518615 1
vertex 51.30235494999949 84.56518614999997 0
endloop
endfacet
facet normal -0.06927966722791723 0.9975972773162471 0
outer loop
vertex 32.65112950000003 83.2699233 1
vertex 51.30235494999949 84.56518614999997 0
vertex 32.65112949999975 83.26992329999999 0
endloop
endfacet
facet normal -0.10279445388601968 0.9947026190024209 0
outer loop
vertex 32.450354820339726 83.24917486408 1
vertex 32.65112950000003 83.2699233 1
vertex 32.65112949999975 83.26992329999999 0
endloop
endfacet
facet normal -0.10279445388601968 0.9947026190024209 0
outer loop
vertex 32.450354820339726 83.24917486408 1
vertex 32.65112949999975 83.26992329999999 0
vertex 32.45035482033995 83.24917486408005 0
endloop
endfacet
facet normal -0.16946601843790182 0.985536031099221 0
outer loop
vertex 32.251434677831696 83.21496992029897 1
vertex 32.450354820339726 83.24917486408 1
vertex 32.45035482033995 83.24917486408005 0
endloop
endfacet
facet normal -0.16946601843790182 0.985536031099221 0
outer loop
vertex 32.251434677831696 83.21496992029897 1
vertex 32.45035482033995 83.24917486408005 0
vertex 32.25143467783177 83.21496992029898 0
endloop
endfacet
facet normal -0.23535165360503646 0.9719102834857625 0
outer loop
vertex 32.05526475000006 83.16746665000002 1
vertex 32.251434677831696 83.21496992029897 1
vertex 32.25143467783177 83.21496992029898 0
endloop
endfacet
facet normal -0.23535165360503646 0.9719102834857625 0
outer loop
vertex 32.05526475000006 83.16746665000002 1
vertex 32.25143467783177 83.21496992029898 0
vertex 32.055264750000255 83.16746665000007 0
endloop
endfacet
facet normal -0.2679035381673029 0.9634457401625898 0
outer loop
vertex -11.303710699999968 71.1107182 1
vertex 32.05526475000006 83.16746665000002 1
vertex 32.055264750000255 83.16746665000007 0
endloop
endfacet
facet normal -0.2679035381673029 0.9634457401625898 0
outer loop
vertex -11.303710699999968 71.1107182 1
vertex 32.055264750000255 83.16746665000007 0
vertex -11.303710699999982 71.1107182 0
endloop
endfacet
facet normal -0.34518720072462333 0.9385338547201688 0
outer loop
vertex -11.760598662145497 70.94267750982712 1
vertex -11.303710699999968 71.1107182 1
vertex -11.303710699999982 71.1107182 0
endloop
endfacet
facet normal -0.34518720072462333 0.9385338547201688 0
outer loop
vertex -11.760598662145497 70.94267750982712 1
vertex -11.303710699999982 71.1107182 0
vertex -11.760598662145526 70.9426775098271 0
endloop
endfacet
facet normal -0.4924396226809328 0.8703466079751565 0
outer loop
vertex -12.184288841217196 70.70295481773657 1
vertex -11.760598662145497 70.94267750982712 1
vertex -11.760598662145526 70.9426775098271 0
endloop
endfacet
facet normal -0.4924396226809328 0.8703466079751565 0
outer loop
vertex -12.184288841217196 70.70295481773657 1
vertex -11.760598662145526 70.9426775098271 0
vertex -12.184288841217196 70.70295481773657 0
endloop
endfacet
facet normal 0 0 1
outer loop
vertex -12.563629638170795 70.39786319754455 1
vertex -12.502697038982074 70.44686933017856 1
vertex -12.324108632523695 70.59050225000016 1
endloop
endfacet
facet normal 0 0 1
outer loop
vertex -12.563629638170795 70.39786319754455 1
vertex -12.324108632523695 70.59050225000016 1
vertex -12.184288841217196 70.70295481773657 1
endloop
endfacet
facet normal 0 0 1
outer loop
vertex -12.563629638170795 70.39786319754455 1
vertex -12.184288841217196 70.70295481773657 1
vertex -12.184288841217196 70.70295481773657 0
endloop
endfacet
facet normal 0 0 1
outer loop
vertex -12.563629638170795 70.39786319754455 1
vertex -12.184288841217196 70.70295481773657 0
vertex -12.324108632523696 70.59050225000016 0
endloop
endfacet
facet normal 0 0 1
outer loop
vertex -12.563629638170795 70.39786319754455 1
vertex -12.324108632523696 70.59050225000016 0
vertex -12.502697038981957 70.44686933017866 0
endloop
endfacet
facet normal 0 0 1
outer loop
vertex -12.563629638170795 70.39786319754455 1
vertex -12.502697038981957 70.44686933017866 0
vertex -12.563629638170767 70.39786319754458 0
endloop
endfacet
facet normal 0 0 1
outer loop
vertex -12.888632574131108 70.03543606202335 1
vertex -12.675954131749334 70.27260450000001 1
vertex -12.61513158828858 70.3404307802041 1
endloop
endfacet
facet normal 0 0 1
outer loop
vertex -12.888632574131108 70.03543606202335 1
vertex -12.61513158828858 70.3404307802041 1
vertex -12.563629638170795 70.39786319754455 1
endloop
endfacet
facet normal 0 0 1
outer loop
vertex -12.888632574131108 70.03543606202335 1
vertex -12.563629638170795 70.39786319754455 1
vertex -12.563629638170767 70.39786319754458 0
endloop
endfacet
facet normal 0 0 1
outer loop
vertex -12.888632574131108 70.03543606202335 1
vertex -12.563629638170767 70.39786319754458 0
vertex -12.615131588288575 70.3404307802041 0
endloop
endfacet
facet normal 0 0 1
outer loop
vertex -12.888632574131108 70.03543606202335 1
vertex -12.615131588288575 70.3404307802041 0
vertex -12.675954131749418 70.27260449999991 0
endloop
endfacet
facet normal 0 0 1
outer loop
vertex -12.888632574131108 70.03543606202335 1
vertex -12.675954131749418 70.27260449999991 0
vertex -12.888632574131123 70.03543606202332 0
endloop
endfacet
facet normal -0.8426751254772252 0.5384223554997905 0
outer loop
vertex -13.150739948512225 69.62521653391684 1
vertex -12.888632574131108 70.03543606202335 1
vertex -12.888632574131123 70.03543606202332 0
endloop
endfacet
facet normal -0.8426751254772252 0.5384223554997905 0
outer loop
vertex -13.150739948512225 69.62521653391684 1
vertex -12.888632574131123 70.03543606202332 0
vertex -13.15073994851221 69.62521653391687 0
endloop
endfacet
facet normal -0.9186619073307454 0.3950446810418248 0
outer loop
vertex -13.343050173103421 69.1780061645575 1
vertex -13.150739948512225 69.62521653391684 1
vertex -13.15073994851221 69.62521653391687 0
endloop
endfacet
facet normal -0.9186619073307454 0.3950446810418248 0
outer loop
vertex -13.343050173103421 69.1780061645575 1
vertex -13.15073994851221 69.62521653391687 0
vertex -13.343050173103435 69.17800616455749 0
endloop
endfacet
facet normal -0.9704592660356426 0.24126502640366693 0
outer loop
vertex -13.460499498813448 68.7055805166137 1
vertex -13.343050173103421 69.1780061645575 1
vertex -13.343050173103435 69.17800616455749 0
endloop
endfacet
facet normal -0.9704592660356426 0.24126502640366693 0
outer loop
vertex -13.460499498813448 68.7055805166137 1
vertex -13.343050173103435 69.17800616455749 0
vertex -13.460499498813462 68.7055805166137 0
endloop
endfacet
facet normal -0.9967033176453781 0.08113258651550838 0
outer loop
vertex -13.499995350000006 68.22037909999997 1
vertex -13.460499498813448 68.7055805166137 1
vertex -13.460499498813462 68.7055805166137 0
endloop
endfacet
facet normal -0.9967033176453781 0.08113258651550838 0
outer loop
vertex -13.499995350000006 68.22037909999997 1
vertex -13.460499498813462 68.7055805166137 0
vertex -13.499995350000006 68.22037909999986 0
endloop
endfacet
endsolid csg.js
