0
SECTION
2
HEADER
9
$INSUNITS
70
4
0
ENDSEC
0
SECTION
2
TABLES
0
TABLE
2
LTYPE
0
LTYPE
72
65
70
64
2
CONTINUOUS
3
______
73
0
40
0
0
ENDTAB
0
TABLE
2
LAYER
0
ENDTAB
0
ENDSEC
0
SECTION
2
ENTITIES
0
LINE
8
0
10
-11.4999999
20
66.2147879
11
-11.4999999
21
-8.7777236
0
LINE
8
0
10
-8.7905181
20
-11.7636237
11
61.7381395
21
-18.6258302
0
LINE
8
0
10
63.9577111
20
-19.9687303
11
99.1214279
21
-73.6900163
0
LINE
8
0
10
102.131441
20
-75.0050691
11
134.7058461
21
-69.4998591
0
LINE
8
0
10
135.3297425
20
-69.3233578
11
153.8022859
21
-61.8599658
0
LINE
8
0
10
155.5468632
20
-58.1996092
11
118.0549819
21
64.1729404
0
LINE
8
0
10
115.6041041
20
66.2649396
11
99.1962033
21
68.5709196
0
LINE
8
0
10
98.2192065
20
68.8855377
11
76.8008917
21
80.1302996
0
LINE
8
0
10
75.6678428
20
80.4626975
11
53.5897378
21
82.3942814
0
LINE
8
0
10
53.120431
20
82.3984891
11
34.465637
21
81.1029744
0
LINE
8
0
10
33.8765942
20
81.0024098
11
-9.2968824
21
69.1070151
0
ARC
8
0
10
-8.4999999
20
-8.7777236
40
3
50
180
51
264.442802
0
ARC
8
0
10
61.4476213
20
-21.6117303
40
3
50
33.2070854
51
84.442802
0
ARC
8
0
10
101.6315177
20
-72.0470162
40
3
50
213.2070854
51
279.5925828
0
ARC
8
0
10
134.2059227
20
-66.5418062
40
3
50
279.5925828
51
291.9999994
0
ARC
8
0
10
152.6784661
20
-59.0784142
40
3
50
291.9999994
51
17.0337515
0
ARC
8
0
10
115.1865848
20
63.2941354
40
3
50
17.0337515
51
82.0000003
0
ARC
8
0
10
99.6137226
20
71.5417238
40
3
50
242.300217
51
262.0000003
0
ARC
8
0
10
75.4063757
20
77.4741134
40
3
50
62.300217
51
85.0000024
0
ARC
8
0
10
53.3282707
20
79.4056973
40
3
50
85.0000024
51
93.972628
0
ARC
8
0
10
34.6734767
20
78.1101827
40
3
50
93.972628
51
105.4042429
0
ARC
8
0
10
-8.4999999
20
66.2147879
40
3
50
105.4042429
51
180
0
LINE
8
0
10
-9.525
20
-9.525
11
28.525
21
-9.525
0
LINE
8
0
10
-9.525
20
-9.525
11
-9.525
21
47.525
0
LINE
8
0
10
-9.5249999
20
66.525
11
28.5250001
21
66.525
0
LINE
8
0
10
-9.5249999
20
66.525
11
-9.525
21
47.525
0
LINE
8
0
10
28.525
20
-9.525
11
28.525
21
47.475
0
LINE
8
0
10
28.5250001
20
47.475
11
28.5250001
21
66.525
0
LINE
8
0
10
29.333241
20
3.1819475
11
48.3107499
21
1.5216306
0
LINE
8
0
10
48.3107499
20
1.5216306
11
48.5722171
21
4.5102148
0
LINE
8
0
10
30.9935579
20
22.1594564
11
30.9892
21
22.1096468
0
LINE
8
0
10
30.9892
20
22.1096468
11
29.333241
21
3.1819475
0
LINE
8
0
10
32.6495169
20
41.0871557
11
32.6451591
21
41.0373461
0
LINE
8
0
10
32.6451591
20
41.0373461
11
30.9935579
21
22.1594564
0
LINE
8
0
10
34.305476
20
60.014855
11
34.3011182
21
59.9650453
0
LINE
8
0
10
34.3011182
20
59.9650453
11
32.6495169
21
41.0871557
0
LINE
8
0
10
54.8891343
20
77.2865951
11
35.9614351
21
78.9425542
0
LINE
8
0
10
35.9614351
20
78.9425542
11
34.305476
21
60.014855
0
LINE
8
0
10
48.5722171
20
4.5102148
11
67.4999163
21
2.8542557
0
LINE
8
0
10
67.4999163
20
2.8542557
11
69.1558754
21
21.7819549
0
LINE
8
0
10
69.1558754
20
21.7819549
11
69.1602332
21
21.8317646
0
LINE
8
0
10
69.1602332
20
21.8317646
11
70.8118345
21
40.7096542
0
LINE
8
0
10
70.8118345
20
40.7096542
11
70.8161923
21
40.7594638
0
LINE
8
0
10
70.8161923
20
40.7594638
11
72.4677935
21
59.6373535
0
LINE
8
0
10
72.4677935
20
59.6373535
11
72.4721514
21
59.6871631
0
LINE
8
0
10
72.4721514
20
59.6871631
11
74.1281104
21
78.6148624
0
LINE
8
0
10
74.1281104
20
78.6148624
11
55.1506015
21
80.2751793
0
LINE
8
0
10
55.1506015
20
80.2751793
11
54.8891343
21
77.2865951
0
LINE
8
0
10
67.0010245
20
-5.6961393
11
85.8161178
21
-8.3404282
0
LINE
8
0
10
85.8161178
20
-8.3404282
11
85.8656312
21
-8.3473868
0
LINE
8
0
10
69.652272
20
13.1684674
11
69.6453135
21
13.118954
0
LINE
8
0
10
69.6453135
20
13.118954
11
67.0010245
21
-5.6961393
0
LINE
8
0
10
72.296561
20
31.9835607
11
72.2896024
21
31.9340473
0
LINE
8
0
10
72.2896024
20
31.9340473
11
69.652272
21
13.1684674
0
LINE
8
0
10
74.9408499
20
50.798654
11
74.9338913
21
50.7491405
0
LINE
8
0
10
74.9338913
20
50.7491405
11
72.296561
21
31.9835607
0
LINE
8
0
10
77.5851388
20
69.6137472
11
115.2648388
21
64.3182108
0
LINE
8
0
10
77.5851388
20
69.6137472
11
74.9408499
21
50.798654
0
LINE
8
0
10
85.8656312
20
-8.3473868
11
104.6807245
21
-10.9916757
0
LINE
8
0
10
104.6807245
20
-10.9916757
11
107.3250134
21
7.8234175
0
LINE
8
0
10
107.3250134
20
7.8234175
11
107.331972
21
7.872931
0
LINE
8
0
10
107.331972
20
7.872931
11
109.9693024
21
26.6385108
0
LINE
8
0
10
109.9693024
20
26.6385108
11
109.9762609
21
26.6880242
0
LINE
8
0
10
109.9762609
20
26.6880242
11
112.6135913
21
45.4536041
0
LINE
8
0
10
112.6135913
20
45.4536041
11
112.6205499
21
45.5031175
0
LINE
8
0
10
112.6205499
20
45.5031175
11
115.2648388
21
64.3182108
0
LINE
8
0
10
92.0474398
20
-32.4422177
11
110.9120465
21
-35.0934652
0
LINE
8
0
10
110.9120465
20
-35.0934652
11
113.563294
21
-16.2288585
0
LINE
8
0
10
113.563294
20
-16.2288585
11
94.6986873
21
-13.577611
0
LINE
8
0
10
94.6986873
20
-13.577611
11
92.0474398
21
-32.4422177
0
LINE
8
0
10
112.3904573
20
-36.3536476
11
127.4020622
21
-48.0819987
0
LINE
8
0
10
127.4020622
20
-48.0819987
11
139.1304133
21
-33.0703938
0
LINE
8
0
10
139.1304133
20
-33.0703938
11
124.1188084
21
-21.3420427
0
LINE
8
0
10
124.1188084
20
-21.3420427
11
112.3904573
21
-36.3536476
0
LINE
8
0
10
128.9824717
20
-49.2116287
11
136.1187273
21
-66.8744811
0
LINE
8
0
10
136.1187273
20
-66.8744811
11
153.7815797
21
-59.7382255
0
LINE
8
0
10
153.7815797
20
-59.7382255
11
146.6453241
21
-42.0753731
0
LINE
8
0
10
146.6453241
20
-42.0753731
11
128.9824717
21
-49.2116287
0
ENDSEC
0
EOF